{"glyphs":{"0":{"ha":694,"x_min":0,"x_max":637,"o":"m 637 231 q 561 53 637 128 q 376 -23 485 -23 l 260 -23 q 76 53 152 -23 q 0 231 0 128 l 0 579 q 76 758 0 682 q 260 833 152 833 l 376 833 q 561 758 485 833 q 637 579 637 682 l 637 231 m 440 644 q 376 671 422 671 l 260 671 q 200 645 227 671 q 174 579 174 618 l 174 377 l 440 644 m 463 231 l 463 431 l 199 167 q 260 139 216 139 l 376 139 q 436 166 410 139 q 463 231 463 192 z "},"1":{"ha":694,"x_min":0,"x_max":637,"o":"m 637 -23 l 0 -23 l 0 139 l 231 139 l 231 556 l 58 556 l 58 718 l 145 718 q 205 744 178 718 q 231 833 231 771 l 405 833 l 405 139 l 637 139 l 637 -23 z "},"2":{"ha":694,"x_min":0,"x_max":637,"o":"m 637 -23 l 0 -23 l 0 88 l 458 547 q 463 579 463 557 q 436 645 463 618 q 376 671 410 671 l 260 671 q 200 645 227 671 q 174 556 174 618 l 0 556 q 76 758 0 682 q 260 833 152 833 l 376 833 q 561 758 485 833 q 637 579 637 683 q 608 461 637 516 l 285 139 l 637 139 l 637 -23 z "},"3":{"ha":694,"x_min":0,"x_max":637,"o":"m 174 255 q 200 166 174 192 q 260 139 227 139 l 376 139 q 436 166 410 139 q 463 231 463 192 q 436 297 463 271 q 376 324 410 324 l 231 324 l 231 486 l 376 486 q 436 513 410 486 q 463 579 463 539 q 436 645 463 618 q 376 671 410 671 l 260 671 q 200 645 227 671 q 174 556 174 618 l 0 556 q 75 758 0 683 q 260 833 150 833 l 376 833 q 561 758 486 833 q 637 579 637 683 q 553 405 637 464 q 637 231 637 346 q 561 52 637 127 q 376 -23 486 -23 l 260 -23 q 75 52 150 -23 q 0 255 0 127 l 174 255 z "},"4":{"ha":694,"x_min":0,"x_max":637,"o":"m 637 -23 l 231 -23 l 231 139 l 347 139 l 347 208 l 0 208 l 0 435 l 398 833 l 521 833 l 521 370 l 637 370 l 637 208 l 521 208 l 521 139 l 637 139 l 637 -23 m 347 370 l 347 549 l 174 375 l 174 370 l 347 370 z "},"5":{"ha":694,"x_min":0,"x_max":637,"o":"m 637 231 q 561 53 637 128 q 376 -23 485 -23 l 260 -23 q 76 52 152 -23 q 0 255 0 127 l 174 255 q 200 166 174 192 q 260 139 227 139 l 376 139 q 436 166 410 139 q 463 231 463 192 l 463 347 q 436 413 463 387 q 376 440 410 440 l 0 440 l 0 833 l 637 833 l 637 671 l 174 671 l 174 602 l 376 602 q 561 526 485 602 q 637 347 637 450 l 637 231 z "},"6":{"ha":694,"x_min":0,"x_max":637,"o":"m 637 231 q 561 53 637 128 q 376 -23 485 -23 l 260 -23 q 76 53 152 -23 q 0 231 0 128 l 0 579 q 76 758 0 682 q 260 833 152 833 l 521 833 l 521 671 l 260 671 q 200 645 227 671 q 174 602 174 618 l 376 602 q 561 526 485 602 q 637 347 637 450 l 637 231 m 463 231 l 463 347 q 436 413 463 387 q 376 440 410 440 l 174 440 l 174 231 q 200 166 174 192 q 260 139 227 139 l 376 139 q 436 166 410 139 q 463 231 463 192 z "},"7":{"ha":694,"x_min":0,"x_max":637,"o":"m 637 491 l 405 259 l 405 -23 l 231 -23 l 231 319 l 463 551 l 463 671 l 0 671 l 0 833 l 637 833 l 637 491 z "},"8":{"ha":694,"x_min":0,"x_max":637,"o":"m 376 833 q 561 758 486 833 q 637 579 637 683 q 553 405 637 464 q 637 231 637 346 q 561 52 637 127 q 376 -23 486 -23 l 260 -23 q 75 52 150 -23 q 0 231 0 127 q 83 405 0 346 q 0 579 0 464 q 75 758 0 683 q 260 833 150 833 l 376 833 m 260 671 q 200 645 226 671 q 174 579 174 618 q 200 513 174 539 q 260 486 227 486 l 376 486 q 436 513 410 486 q 463 579 463 539 q 436 645 463 618 q 376 671 410 671 l 260 671 m 376 139 q 437 166 411 139 q 463 231 463 192 q 436 297 463 271 q 376 324 410 324 l 260 324 q 200 297 227 324 q 174 231 174 271 q 200 166 174 192 q 260 139 227 139 l 376 139 z "},"9":{"ha":694,"x_min":0,"x_max":637,"o":"m 637 231 q 561 53 637 128 q 376 -23 485 -23 l 116 -23 l 116 139 l 376 139 q 436 166 410 139 q 463 208 463 192 l 260 208 q 76 284 152 208 q 0 463 0 360 l 0 579 q 76 758 0 682 q 260 833 152 833 l 376 833 q 561 758 485 833 q 637 579 637 682 l 637 231 m 463 370 l 463 579 q 436 645 463 618 q 376 671 410 671 l 260 671 q 200 645 227 671 q 174 579 174 618 l 174 463 q 200 397 174 424 q 260 370 227 370 l 463 370 z "}," ":{"ha":694,"x_min":0,"x_max":0,"o":""},"!":{"ha":694,"x_min":231,"x_max":405,"o":"m 405 208 l 231 208 l 231 833 l 405 833 l 405 208 m 405 58 q 381 1 405 25 q 318 -23 356 -23 q 256 1 280 -23 q 231 58 231 25 q 256 115 231 90 q 318 139 280 139 q 381 115 356 139 q 405 58 405 90 z "},"\"":{"ha":694,"x_min":116,"x_max":521,"o":"m 521 556 l 347 556 l 347 949 l 521 949 l 521 556 m 289 556 l 116 556 l 116 949 l 289 949 l 289 556 z "},"#":{"ha":694,"x_min":0,"x_max":637,"o":"m 637 324 l 521 324 l 521 208 l 347 208 l 347 324 l 289 324 l 289 208 l 116 208 l 116 324 l 0 324 l 0 486 l 116 486 l 116 556 l 0 556 l 0 718 l 116 718 l 116 833 l 289 833 l 289 718 l 347 718 l 347 833 l 521 833 l 521 718 l 637 718 l 637 556 l 521 556 l 521 486 l 637 486 l 637 324 m 347 486 l 347 556 l 289 556 l 289 486 l 347 486 z "},"$":{"ha":694,"x_min":0,"x_max":637,"o":"m 637 231 q 561 53 637 128 q 405 -23 486 -23 l 405 -138 l 231 -138 l 231 -23 q 75 52 150 -23 q 0 255 0 127 l 174 255 q 200 166 174 192 q 231 139 227 139 l 231 324 q 75 399 150 324 q 0 579 0 475 q 75 758 0 683 q 231 833 150 833 l 231 949 l 405 949 l 405 833 q 561 758 486 833 q 637 556 637 682 l 463 556 q 436 645 463 618 q 405 671 410 671 l 405 486 q 561 410 485 486 q 637 231 637 334 m 231 486 l 231 671 q 200 645 227 671 q 174 579 174 618 q 200 513 174 539 q 231 486 227 486 m 463 231 q 436 297 463 271 q 405 324 410 324 l 405 139 q 436 166 410 139 q 463 231 463 192 z "},"%":{"ha":694,"x_min":0,"x_max":637,"o":"m 637 231 q 579 53 637 130 q 434 -23 522 -23 q 289 53 346 -23 q 231 231 231 130 q 227 194 231 245 l 174 141 l 174 -23 l 0 -23 l 0 206 l 131 337 q 44 419 90 345 q 0 579 0 485 q 57 757 0 681 q 203 833 115 833 l 637 833 l 637 604 l 507 476 q 590 395 543 468 q 637 231 637 323 m 463 669 l 463 671 l 392 671 q 405 579 405 642 q 412 618 405 553 l 463 669 m 231 579 q 219 646 231 622 q 203 671 207 671 q 186 646 198 671 q 174 579 174 622 q 186 511 174 536 q 203 486 198 486 q 219 511 207 486 q 231 579 231 536 m 463 231 q 451 299 463 274 q 434 324 439 324 q 417 299 429 324 q 405 231 405 274 q 417 164 405 189 q 434 139 429 139 q 451 164 439 139 q 463 231 463 189 z "},"&":{"ha":694,"x_min":0,"x_max":670,"o":"m 670 293 l 552 174 l 663 61 l 546 -53 l 434 57 l 387 8 q 260 -23 326 -23 q 76 52 152 -23 q 0 231 0 127 q 29 350 0 294 l 84 404 l 29 461 q 0 579 0 516 q 75 758 0 683 q 260 833 150 833 l 332 833 q 466 779 412 833 q 521 652 521 725 q 507 593 521 612 l 321 405 l 434 291 l 553 410 l 670 293 m 348 666 q 347 666 347 663 l 347 671 l 260 671 q 200 645 227 671 q 174 579 174 618 q 178 547 174 557 l 204 522 l 348 666 m 317 174 l 203 287 l 178 263 q 174 231 174 253 q 200 166 174 192 q 260 139 227 139 q 285 141 278 139 l 317 174 z "},"'":{"ha":694,"x_min":231,"x_max":405,"o":"m 405 556 l 231 556 l 231 949 l 405 949 l 405 556 z "},"(":{"ha":694,"x_min":116,"x_max":551,"o":"m 551 -56 l 434 -172 l 116 144 l 116 667 l 434 985 l 551 868 l 289 606 l 289 204 l 551 -56 z "},")":{"ha":694,"x_min":94,"x_max":529,"o":"m 529 144 l 211 -172 l 94 -56 l 355 204 l 355 606 l 94 868 l 211 985 l 529 667 l 529 144 z "},"*":{"ha":694,"x_min":8,"x_max":642,"o":"m 642 440 l 563 295 l 412 377 l 412 208 l 238 208 l 238 376 l 91 292 l 9 434 l 160 520 l 8 602 l 88 747 l 238 663 l 238 833 l 412 833 l 412 667 l 558 750 l 640 609 l 491 522 l 642 440 z "},"+":{"ha":694,"x_min":0,"x_max":637,"o":"m 637 324 l 405 324 l 405 93 l 231 93 l 231 324 l 0 324 l 0 486 l 231 486 l 231 718 l 405 718 l 405 486 l 637 486 l 637 324 z "},",":{"ha":694,"x_min":145,"x_max":471,"o":"m 471 -57 l 262 -266 l 145 -150 l 297 2 l 297 6 q 223 47 265 6 q 182 145 182 89 q 223 242 182 200 q 326 284 265 284 q 429 242 388 284 q 471 145 471 200 l 471 -57 z "},"-":{"ha":694,"x_min":116,"x_max":521,"o":"m 521 324 l 116 324 l 116 486 l 521 486 l 521 324 z "},"‐":{"ha":694,"x_min":116,"x_max":521,"o":"m 521 324 l 116 324 l 116 486 l 521 486 l 521 324 z "},".":{"ha":694,"x_min":174,"x_max":458,"o":"m 458 145 q 419 47 458 88 q 318 6 380 6 q 215 47 257 6 q 174 145 174 89 q 215 242 174 200 q 318 284 257 284 q 419 242 380 284 q 458 145 458 201 z "},"/":{"ha":694,"x_min":0,"x_max":731,"o":"m 731 882 l 152 -253 l 0 -176 l 579 961 l 731 882 z "},":":{"ha":694,"x_min":174,"x_max":463,"o":"m 463 492 q 421 395 463 436 q 318 353 380 353 q 215 395 257 353 q 174 492 174 436 q 215 589 174 547 q 318 631 257 631 q 421 589 380 631 q 463 492 463 547 m 463 145 q 421 47 463 89 q 318 6 380 6 q 215 47 257 6 q 174 145 174 89 q 215 242 174 200 q 318 284 257 284 q 421 242 380 284 q 463 145 463 200 z "},";":{"ha":694,"x_min":145,"x_max":471,"o":"m 471 492 q 429 395 471 436 q 326 353 388 353 q 223 395 265 353 q 182 492 182 436 q 223 589 182 547 q 326 631 265 631 q 429 589 388 631 q 471 492 471 547 m 471 -57 l 262 -266 l 145 -150 l 297 2 l 297 6 q 223 47 265 6 q 182 145 182 89 q 223 242 182 200 q 326 284 265 284 q 429 242 388 284 q 471 145 471 200 l 471 -57 z "},"<":{"ha":694,"x_min":91,"x_max":682,"o":"m 682 51 l 565 -64 l 91 405 l 558 869 l 675 752 l 330 405 l 682 51 z "},"=":{"ha":694,"x_min":0,"x_max":637,"o":"m 637 440 l 0 440 l 0 602 l 637 602 l 637 440 m 637 208 l 0 208 l 0 370 l 637 370 l 637 208 z "},">":{"ha":694,"x_min":87,"x_max":677,"o":"m 677 405 l 211 -57 l 94 58 l 439 405 l 87 759 l 204 876 l 677 405 z "},"?":{"ha":694,"x_min":0,"x_max":637,"o":"m 637 579 q 608 461 637 516 l 354 208 l 231 208 l 231 319 l 458 547 q 463 579 463 557 q 436 645 463 618 q 376 671 410 671 l 260 671 q 200 645 227 671 q 174 556 174 618 l 0 556 q 76 758 0 682 q 260 833 152 833 l 376 833 q 561 758 485 833 q 637 579 637 683 m 405 58 q 381 1 405 25 q 318 -23 356 -23 q 256 1 280 -23 q 231 58 231 25 q 256 115 231 90 q 318 139 280 139 q 381 115 356 139 q 405 58 405 90 z "},"@":{"ha":694,"x_min":0,"x_max":637,"o":"m 637 -23 l 260 -23 q 76 53 152 -23 q 0 231 0 128 l 0 579 q 76 758 0 682 q 260 833 152 833 l 376 833 q 561 758 485 833 q 637 579 637 682 l 637 347 q 595 249 637 291 q 492 208 553 208 l 376 208 q 273 251 315 208 q 231 347 231 294 l 231 463 q 273 560 231 519 q 376 602 315 602 l 463 602 q 436 645 463 618 q 376 671 410 671 l 260 671 q 200 645 227 671 q 174 579 174 618 l 174 231 q 200 166 174 192 q 260 139 227 139 l 637 139 l 637 -23 m 463 440 l 405 440 l 405 370 l 463 370 l 463 440 z "},"A":{"ha":694,"x_min":0,"x_max":637,"o":"m 174 208 l 174 -23 l 0 -23 l 0 381 l 227 833 l 411 833 l 637 381 l 637 -23 l 463 -23 l 463 208 l 174 208 m 318 632 l 188 370 l 449 370 l 318 632 z "},"B":{"ha":694,"x_min":0,"x_max":637,"o":"m 637 579 q 553 405 637 464 q 637 231 637 346 q 561 52 637 127 q 376 -23 486 -23 l 0 -23 l 0 833 l 376 833 q 561 758 486 833 q 637 579 637 683 m 174 671 l 174 486 l 376 486 q 436 513 410 486 q 463 579 463 539 q 436 645 463 618 q 376 671 410 671 l 174 671 m 174 324 l 174 139 l 376 139 q 436 166 410 139 q 463 231 463 192 q 436 297 463 271 q 376 324 410 324 l 174 324 z "},"C":{"ha":694,"x_min":0,"x_max":613,"o":"m 613 255 q 549 53 613 128 q 376 -23 485 -23 l 260 -23 q 76 53 152 -23 q 0 231 0 128 l 0 579 q 76 758 0 682 q 260 833 152 833 l 376 833 q 549 758 485 833 q 613 556 613 682 l 451 556 q 425 645 451 618 q 365 671 398 671 l 272 671 q 212 645 238 671 q 185 579 185 618 l 185 231 q 212 166 185 192 q 272 139 238 139 l 365 139 q 425 166 398 139 q 451 255 451 192 l 613 255 z "},"D":{"ha":694,"x_min":0,"x_max":637,"o":"m 637 231 q 561 53 637 128 q 376 -23 485 -23 l 0 -23 l 0 833 l 376 833 q 561 758 485 833 q 637 579 637 682 l 637 231 m 463 231 l 463 579 q 436 645 463 618 q 376 671 410 671 l 174 671 l 174 139 l 376 139 q 436 166 410 139 q 463 231 463 192 z "},"E":{"ha":694,"x_min":0,"x_max":637,"o":"m 637 -23 l 0 -23 l 0 833 l 637 833 l 637 671 l 174 671 l 174 486 l 521 486 l 521 324 l 174 324 l 174 139 l 637 139 l 637 -23 z "},"F":{"ha":694,"x_min":0,"x_max":637,"o":"m 637 671 l 174 671 l 174 486 l 521 486 l 521 324 l 174 324 l 174 -23 l 0 -23 l 0 833 l 637 833 l 637 671 z "},"G":{"ha":694,"x_min":0,"x_max":637,"o":"m 637 231 q 561 53 637 128 q 376 -23 485 -23 l 260 -23 q 76 53 152 -23 q 0 231 0 128 l 0 579 q 76 758 0 682 q 260 833 152 833 l 376 833 q 561 758 485 833 q 637 556 637 682 l 463 556 q 436 645 463 618 q 376 671 410 671 l 260 671 q 200 645 227 671 q 174 579 174 618 l 174 231 q 200 166 174 192 q 260 139 227 139 l 376 139 q 436 166 410 139 q 463 231 463 192 l 463 324 l 347 324 l 347 486 l 637 486 l 637 231 z "},"H":{"ha":694,"x_min":0,"x_max":637,"o":"m 637 -23 l 463 -23 l 463 324 l 174 324 l 174 -23 l 0 -23 l 0 833 l 174 833 l 174 486 l 463 486 l 463 833 l 637 833 l 637 -23 z "},"I":{"ha":694,"x_min":0,"x_max":637,"o":"m 637 -23 l 0 -23 l 0 139 l 231 139 l 231 671 l 0 671 l 0 833 l 637 833 l 637 671 l 405 671 l 405 139 l 637 139 l 637 -23 z "},"J":{"ha":694,"x_min":0,"x_max":637,"o":"m 637 231 q 561 52 637 127 q 376 -23 485 -23 l 260 -23 q 76 53 152 -23 q 0 231 0 128 l 0 370 l 174 370 l 174 231 q 200 166 174 192 q 260 139 227 139 l 376 139 q 436 166 410 139 q 463 231 463 192 l 463 833 l 637 833 l 637 231 z "},"K":{"ha":694,"x_min":0,"x_max":637,"o":"m 637 -23 l 478 -23 l 174 281 l 174 -23 l 0 -23 l 0 833 l 174 833 l 174 529 l 478 833 l 637 833 l 637 759 l 282 405 l 637 52 l 637 -23 z "},"L":{"ha":694,"x_min":0,"x_max":637,"o":"m 637 -23 l 0 -23 l 0 833 l 174 833 l 174 139 l 637 139 l 637 -23 z "},"M":{"ha":694,"x_min":0,"x_max":637,"o":"m 637 -23 l 463 -23 l 463 542 l 405 484 l 405 324 l 231 324 l 231 484 l 174 542 l 174 -23 l 0 -23 l 0 833 l 130 833 l 318 645 l 507 833 l 637 833 l 637 -23 z "},"N":{"ha":694,"x_min":0,"x_max":637,"o":"m 637 -23 l 463 -23 l 463 259 l 174 549 l 174 -23 l 0 -23 l 0 833 l 123 833 l 463 493 l 463 833 l 637 833 l 637 -23 z "},"O":{"ha":694,"x_min":0,"x_max":637,"o":"m 637 231 q 561 53 637 128 q 376 -23 485 -23 l 260 -23 q 76 53 152 -23 q 0 231 0 128 l 0 579 q 76 758 0 682 q 260 833 152 833 l 376 833 q 561 758 485 833 q 637 579 637 682 l 637 231 m 463 231 l 463 579 q 436 645 463 618 q 376 671 410 671 l 260 671 q 200 645 227 671 q 174 579 174 618 l 174 231 q 200 166 174 192 q 260 139 227 139 l 376 139 q 436 166 410 139 q 463 231 463 192 z "},"P":{"ha":694,"x_min":0,"x_max":637,"o":"m 637 579 q 561 400 637 476 q 376 324 485 324 l 174 324 l 174 -23 l 0 -23 l 0 833 l 376 833 q 561 758 486 833 q 637 579 637 683 m 463 579 q 436 645 463 618 q 376 671 410 671 l 174 671 l 174 486 l 376 486 q 436 513 410 486 q 463 579 463 539 z "},"Q":{"ha":694,"x_min":0,"x_max":657,"o":"m 657 -43 l 538 -163 l 397 -22 q 376 -23 390 -23 l 260 -23 q 76 53 152 -23 q 0 231 0 128 l 0 579 q 76 758 0 682 q 260 833 152 833 l 376 833 q 561 758 485 833 q 637 579 637 682 l 637 231 q 561 51 637 111 l 657 -43 m 463 231 l 463 579 q 436 645 463 618 q 376 671 410 671 l 260 671 q 200 645 227 671 q 174 579 174 618 l 174 231 q 200 164 174 191 q 259 139 227 138 l 236 138 l 212 162 l 331 280 l 444 167 q 463 231 463 179 z "},"R":{"ha":694,"x_min":0,"x_max":637,"o":"m 463 -23 l 463 231 q 436 297 463 271 q 376 324 410 324 l 174 324 l 174 -23 l 0 -23 l 0 833 l 376 833 q 561 758 486 833 q 637 579 637 683 q 553 405 637 464 q 637 231 637 346 l 637 -23 l 463 -23 m 174 486 l 376 486 q 436 513 410 486 q 463 579 463 539 q 436 645 463 618 q 376 671 410 671 l 174 671 l 174 486 z "},"S":{"ha":694,"x_min":0,"x_max":637,"o":"m 637 231 q 561 53 637 128 q 376 -23 485 -23 l 260 -23 q 76 52 152 -23 q 0 255 0 127 l 174 255 q 200 166 174 192 q 260 139 227 139 l 376 139 q 436 166 410 139 q 463 231 463 192 q 436 297 463 271 q 376 324 410 324 l 260 324 q 76 400 152 324 q 0 579 0 476 q 76 758 0 682 q 260 833 152 833 l 376 833 q 561 758 485 833 q 637 556 637 682 l 463 556 q 436 645 463 618 q 376 671 410 671 l 260 671 q 200 645 227 671 q 174 579 174 618 q 200 513 174 539 q 260 486 227 486 l 376 486 q 561 410 485 486 q 637 231 637 334 z "},"T":{"ha":694,"x_min":0,"x_max":637,"o":"m 637 671 l 405 671 l 405 -23 l 231 -23 l 231 671 l 0 671 l 0 833 l 637 833 l 637 671 z "},"U":{"ha":694,"x_min":0,"x_max":637,"o":"m 637 231 q 561 52 637 127 q 376 -23 485 -23 l 260 -23 q 76 52 152 -23 q 0 231 0 127 l 0 833 l 174 833 l 174 231 q 200 166 174 192 q 260 139 227 139 l 376 139 q 436 166 410 139 q 463 231 463 192 l 463 833 l 637 833 l 637 231 z "},"V":{"ha":694,"x_min":0,"x_max":637,"o":"m 637 574 l 318 -13 l 0 574 l 0 833 l 174 833 l 174 610 l 318 323 l 463 612 l 463 833 l 637 833 l 637 574 z "},"W":{"ha":694,"x_min":0,"x_max":637,"o":"m 637 -23 l 507 -23 l 318 166 l 130 -23 l 0 -23 l 0 833 l 174 833 l 174 269 l 231 326 l 231 486 l 405 486 l 405 326 l 463 269 l 463 833 l 637 833 l 637 -23 z "},"X":{"ha":694,"x_min":0,"x_max":637,"o":"m 637 -23 l 463 -23 l 463 144 l 318 288 l 174 144 l 174 -23 l 0 -23 l 0 204 l 201 405 l 0 606 l 0 833 l 174 833 l 174 667 l 318 522 l 463 667 l 463 833 l 637 833 l 637 606 l 435 405 l 637 204 l 637 -23 z "},"Y":{"ha":694,"x_min":0,"x_max":637,"o":"m 637 491 l 405 259 l 405 -23 l 231 -23 l 231 259 l 0 491 l 0 833 l 174 833 l 174 551 l 318 406 l 463 551 l 463 833 l 637 833 l 637 491 z "},"Z":{"ha":694,"x_min":0,"x_max":637,"o":"m 637 -23 l 0 -23 l 0 215 l 463 677 l 463 671 l 0 671 l 0 833 l 637 833 l 637 615 l 174 152 l 174 139 l 637 139 l 637 -23 z "},"[":{"ha":694,"x_min":231,"x_max":521,"o":"m 521 -138 l 231 -138 l 231 949 l 521 949 l 521 787 l 405 787 l 405 23 l 521 23 l 521 -138 z "},"\\":{"ha":694,"x_min":41,"x_max":766,"o":"m 766 -176 l 623 -255 l 41 883 l 193 962 l 766 -176 z "},"]":{"ha":694,"x_min":116,"x_max":405,"o":"m 405 -138 l 116 -138 l 116 23 l 231 23 l 231 787 l 116 787 l 116 949 l 405 949 l 405 -138 z "},"^":{"ha":694,"x_min":2,"x_max":689,"o":"m 689 527 l 571 407 l 345 633 l 120 409 l 2 528 l 345 872 l 689 527 z "},"_":{"ha":694,"x_min":0,"x_max":752,"o":"m 752 -253 l 0 -253 l 0 -91 l 752 -91 l 752 -253 z "},"`":{"ha":694,"x_min":94,"x_max":435,"o":"m 435 737 l 319 622 l 94 846 l 211 963 l 435 737 z "},"a":{"ha":694,"x_min":0,"x_max":637,"o":"m 637 602 l 637 -23 l 463 -23 l 463 93 l 443 73 q 260 -23 347 -23 q 75 52 150 -23 q 0 231 0 127 l 0 347 q 75 527 0 451 q 260 602 150 602 l 637 602 m 260 440 q 200 413 227 440 q 174 347 174 387 l 174 231 q 200 166 174 192 q 260 139 227 139 q 355 190 304 139 l 463 297 l 463 440 l 260 440 z "},"b":{"ha":694,"x_min":0,"x_max":637,"o":"m 637 231 q 561 53 637 128 q 376 -23 485 -23 l 0 -23 l 0 833 l 174 833 l 174 602 l 376 602 q 561 526 485 602 q 637 347 637 450 l 637 231 m 463 231 l 463 347 q 436 413 463 387 q 376 440 410 440 l 174 440 l 174 139 l 376 139 q 436 166 410 139 q 463 231 463 192 z "},"c":{"ha":694,"x_min":0,"x_max":637,"o":"m 637 -23 l 260 -23 q 76 53 152 -23 q 0 231 0 128 l 0 347 q 76 526 0 450 q 260 602 152 602 l 376 602 q 561 526 485 602 q 637 324 637 450 l 463 324 q 436 413 463 387 q 376 440 410 440 l 260 440 q 200 413 227 440 q 174 347 174 387 l 174 231 q 200 166 174 192 q 260 139 227 139 l 637 139 l 637 -23 z "},"d":{"ha":694,"x_min":0,"x_max":637,"o":"m 637 -23 l 260 -23 q 76 53 152 -23 q 0 231 0 128 l 0 347 q 76 526 0 450 q 260 602 152 602 l 463 602 l 463 833 l 637 833 l 637 -23 m 463 139 l 463 440 l 260 440 q 200 413 227 440 q 174 347 174 387 l 174 231 q 200 166 174 192 q 260 139 227 139 l 463 139 z "},"e":{"ha":694,"x_min":0,"x_max":637,"o":"m 637 -23 l 260 -23 q 76 53 152 -23 q 0 231 0 128 l 0 347 q 76 526 0 450 q 260 602 152 602 l 376 602 q 561 526 485 602 q 637 347 637 450 l 637 208 l 174 208 q 200 166 174 192 q 260 139 227 139 l 637 139 l 637 -23 m 463 370 q 436 413 463 387 q 376 440 410 440 l 260 440 q 200 413 227 440 q 174 370 174 387 l 463 370 z "},"f":{"ha":694,"x_min":116,"x_max":637,"o":"m 637 671 l 492 671 q 432 645 458 671 q 405 602 405 618 l 521 602 l 521 440 l 405 440 l 405 -23 l 231 -23 l 231 440 l 116 440 l 116 602 l 231 602 q 307 758 231 682 q 492 833 383 833 l 637 833 l 637 671 z "},"g":{"ha":694,"x_min":0,"x_max":637,"o":"m 637 0 q 561 -178 637 -102 q 376 -253 485 -253 l 116 -253 l 116 -91 l 376 -91 q 436 -65 410 -91 q 463 -23 463 -38 l 260 -23 q 76 53 152 -23 q 0 231 0 128 l 0 347 q 76 526 0 450 q 260 602 152 602 l 637 602 l 637 0 m 463 139 l 463 440 l 260 440 q 200 413 227 440 q 174 347 174 387 l 174 231 q 200 166 174 192 q 260 139 227 139 l 463 139 z "},"h":{"ha":694,"x_min":0,"x_max":637,"o":"m 637 -23 l 463 -23 l 463 347 q 436 413 463 387 q 376 440 410 440 l 174 440 l 174 -23 l 0 -23 l 0 833 l 174 833 l 174 602 l 376 602 q 561 526 485 602 q 637 347 637 450 l 637 -23 z "},"i":{"ha":694,"x_min":116,"x_max":521,"o":"m 405 752 q 381 696 405 720 q 318 671 356 671 q 256 696 280 671 q 231 752 231 720 q 256 809 231 785 q 318 833 280 833 q 381 809 356 833 q 405 752 405 785 m 521 -23 l 116 -23 l 116 139 l 231 139 l 231 440 l 116 440 l 116 602 l 405 602 l 405 139 l 521 139 l 521 -23 z "},"j":{"ha":694,"x_min":0,"x_max":405,"o":"m 405 752 q 381 696 405 720 q 318 671 356 671 q 256 696 280 671 q 231 752 231 720 q 256 809 231 785 q 318 833 280 833 q 381 809 356 833 q 405 752 405 785 m 405 0 q 329 -178 405 -102 q 145 -253 253 -253 l 0 -253 l 0 -91 l 145 -91 q 205 -65 178 -91 q 231 0 231 -38 l 231 440 l 116 440 l 116 602 l 405 602 l 405 0 z "},"k":{"ha":694,"x_min":0,"x_max":637,"o":"m 637 -23 l 514 -23 l 260 230 l 174 144 l 174 -23 l 0 -23 l 0 833 l 174 833 l 174 377 l 398 602 l 632 602 l 377 347 l 637 88 l 637 -23 z "},"l":{"ha":694,"x_min":116,"x_max":521,"o":"m 521 -23 l 116 -23 l 116 139 l 231 139 l 231 671 l 116 671 l 116 833 l 405 833 l 405 139 l 521 139 l 521 -23 z "},"m":{"ha":694,"x_min":0,"x_max":637,"o":"m 637 -23 l 463 -23 l 463 347 q 436 413 463 387 q 405 440 410 440 l 405 -23 l 231 -23 l 231 440 l 174 440 l 174 -23 l 0 -23 l 0 602 l 376 602 q 561 526 485 602 q 637 347 637 450 l 637 -23 z "},"n":{"ha":694,"x_min":0,"x_max":637,"o":"m 174 602 l 174 485 l 196 506 q 376 602 291 602 q 561 527 486 602 q 637 347 637 451 l 637 -23 l 463 -23 l 463 347 q 436 413 463 387 q 376 440 410 440 q 281 389 332 440 l 174 281 l 174 -23 l 0 -23 l 0 602 l 174 602 z "},"o":{"ha":694,"x_min":0,"x_max":637,"o":"m 637 231 q 561 53 637 128 q 376 -23 485 -23 l 260 -23 q 76 53 152 -23 q 0 231 0 128 l 0 347 q 76 526 0 450 q 260 602 152 602 l 376 602 q 561 526 485 602 q 637 347 637 450 l 637 231 m 463 231 l 463 347 q 436 413 463 387 q 376 440 410 440 l 260 440 q 200 413 227 440 q 174 347 174 387 l 174 231 q 200 166 174 192 q 260 139 227 139 l 376 139 q 436 166 410 139 q 463 231 463 192 z "},"p":{"ha":694,"x_min":0,"x_max":637,"o":"m 637 231 q 561 53 637 128 q 376 -23 485 -23 l 174 -23 l 174 -253 l 0 -253 l 0 602 l 376 602 q 561 526 485 602 q 637 347 637 450 l 637 231 m 463 231 l 463 347 q 436 413 463 387 q 376 440 410 440 l 174 440 l 174 139 l 376 139 q 436 166 410 139 q 463 231 463 192 z "},"q":{"ha":694,"x_min":0,"x_max":637,"o":"m 637 -253 l 463 -253 l 463 -23 l 260 -23 q 76 53 152 -23 q 0 231 0 128 l 0 347 q 76 526 0 450 q 260 602 152 602 l 637 602 l 637 -253 m 463 139 l 463 440 l 260 440 q 200 413 227 440 q 174 347 174 387 l 174 231 q 200 166 174 192 q 260 139 227 139 l 463 139 z "},"r":{"ha":694,"x_min":0,"x_max":613,"o":"m 174 602 l 174 485 l 196 506 q 376 602 291 602 q 550 527 486 602 q 613 382 613 451 l 463 359 q 436 413 463 387 q 376 440 410 440 q 281 389 332 440 l 174 281 l 174 -23 l 0 -23 l 0 602 l 174 602 z "},"s":{"ha":694,"x_min":0,"x_max":637,"o":"m 637 602 l 637 440 l 304 440 q 220 428 251 440 q 189 405 189 416 q 220 383 189 395 q 304 370 251 370 l 333 370 q 537 313 451 370 q 623 174 623 256 q 537 34 623 91 q 333 -23 451 -23 l 0 -23 l 0 139 l 333 139 q 417 151 385 139 q 449 174 449 163 q 417 196 449 184 q 333 208 385 208 l 304 208 q 100 266 185 208 q 15 405 15 323 q 100 545 15 487 q 304 602 185 602 l 637 602 z "},"t":{"ha":694,"x_min":116,"x_max":637,"o":"m 637 -23 l 492 -23 q 307 53 383 -23 q 231 231 231 128 l 231 440 l 116 440 l 116 602 l 231 602 l 231 833 l 405 833 l 405 602 l 521 602 l 521 440 l 405 440 l 405 231 q 432 166 405 192 q 492 139 458 139 l 637 139 l 637 -23 z "},"u":{"ha":694,"x_min":0,"x_max":637,"o":"m 463 -23 l 463 93 l 443 73 q 260 -23 347 -23 q 75 52 150 -23 q 0 231 0 127 l 0 602 l 174 602 l 174 231 q 200 166 174 192 q 260 139 227 139 q 355 190 304 139 l 463 297 l 463 602 l 637 602 l 637 -23 l 463 -23 z "},"v":{"ha":694,"x_min":0,"x_max":637,"o":"m 637 458 l 396 -23 l 241 -23 l 0 458 l 0 602 l 174 602 l 174 497 l 318 207 l 463 497 l 463 602 l 637 602 l 637 458 z "},"w":{"ha":694,"x_min":0,"x_max":637,"o":"m 332 93 q 203 -23 285 -23 q 57 62 113 -23 q 0 260 0 147 l 0 602 l 174 602 l 174 260 q 186 171 174 204 q 203 138 199 138 q 219 171 206 138 q 231 260 231 204 l 231 602 l 405 602 l 405 260 q 418 171 405 204 q 434 139 431 139 q 450 171 438 139 q 463 260 463 204 l 463 602 l 637 602 l 637 260 q 580 62 637 147 q 434 -23 523 -23 q 304 93 352 -23 l 332 93 z "},"x":{"ha":694,"x_min":0,"x_max":637,"o":"m 637 -23 l 463 -23 l 463 28 l 318 172 l 174 28 l 174 -23 l 0 -23 l 0 88 l 201 289 l 0 491 l 0 602 l 174 602 l 174 551 l 318 406 l 463 551 l 463 602 l 637 602 l 637 491 l 435 289 l 637 88 l 637 -23 z "},"y":{"ha":694,"x_min":0,"x_max":637,"o":"m 637 0 q 561 -178 637 -102 q 376 -253 485 -253 l 116 -253 l 116 -91 l 376 -91 q 436 -65 410 -91 q 463 -23 463 -38 l 260 -23 q 76 53 152 -23 q 0 231 0 128 l 0 602 l 174 602 l 174 231 q 200 166 174 192 q 260 139 227 139 l 463 139 l 463 602 l 637 602 l 637 0 z "},"z":{"ha":694,"x_min":0,"x_max":637,"o":"m 637 -23 l 0 -23 l 0 88 l 352 440 l 0 440 l 0 602 l 637 602 l 637 491 l 285 139 l 637 139 l 637 -23 z "},"{":{"ha":694,"x_min":116,"x_max":521,"o":"m 521 -253 q 307 -186 383 -253 q 231 -28 231 -119 l 231 231 q 205 297 231 271 q 116 324 178 324 l 116 486 q 205 513 178 486 q 231 579 231 539 l 231 839 q 307 998 231 932 q 521 1065 383 1065 l 521 903 q 432 876 458 903 q 405 810 405 850 l 405 521 q 289 398 405 446 l 289 412 q 405 289 405 365 l 405 0 q 432 -65 405 -38 q 521 -91 458 -91 l 521 -253 z "},"|":{"ha":694,"x_min":231,"x_max":405,"o":"m 405 -138 l 231 -138 l 231 949 l 405 949 l 405 -138 z "},"}":{"ha":694,"x_min":116,"x_max":521,"o":"m 521 324 q 432 297 458 324 q 405 231 405 271 l 405 -28 q 329 -186 405 -119 q 116 -253 253 -253 l 116 -91 q 205 -65 178 -91 q 231 0 231 -38 l 231 289 q 347 412 231 365 l 347 398 q 231 521 231 446 l 231 810 q 205 876 231 850 q 116 903 178 903 l 116 1065 q 329 998 253 1065 q 405 839 405 932 l 405 579 q 432 513 405 539 q 521 486 458 486 l 521 324 z "},"~":{"ha":694,"x_min":0,"x_max":637,"o":"m 637 521 q 578 383 637 441 q 434 324 520 324 q 297 375 348 324 q 203 440 233 440 q 183 431 192 440 q 174 405 174 421 l 174 324 l 0 324 l 0 405 q 58 543 0 485 q 203 602 117 602 q 339 552 289 602 q 434 486 405 486 q 454 495 444 486 q 463 521 463 505 l 463 602 l 637 602 l 637 521 z "},"Ä":{"ha":694,"x_min":0,"x_max":637,"o":"m 521 984 q 497 927 521 951 q 434 903 472 903 q 372 927 396 903 q 347 984 347 951 q 372 1041 347 1016 q 434 1065 396 1065 q 497 1041 472 1065 q 521 984 521 1016 m 289 984 q 265 927 289 951 q 203 903 241 903 q 140 927 164 903 q 116 984 116 951 q 140 1041 116 1016 q 203 1065 164 1065 q 265 1041 241 1065 q 289 984 289 1016 m 174 208 l 174 -23 l 0 -23 l 0 381 l 227 833 l 411 833 l 637 381 l 637 -23 l 463 -23 l 463 208 l 174 208 m 318 632 l 188 370 l 449 370 l 318 632 z "},"Å":{"ha":694,"x_min":0,"x_max":637,"o":"m 175 728 q 116 868 116 777 q 174 1006 116 948 q 318 1065 233 1065 q 462 1006 404 1065 q 521 868 521 948 q 462 728 521 777 l 637 381 l 637 -23 l 463 -23 l 463 208 l 174 208 l 174 -23 l 0 -23 l 0 381 l 175 728 m 289 868 q 299 843 289 852 q 318 833 308 833 q 338 843 329 833 q 347 868 347 852 q 338 894 347 884 q 318 903 329 903 q 299 894 308 903 q 289 868 289 884 m 318 632 l 188 370 l 449 370 l 318 632 z "},"Ç":{"ha":694,"x_min":0,"x_max":637,"o":"m 637 255 q 561 52 637 127 q 376 -23 486 -23 l 417 -23 l 435 -41 l 209 -266 l 93 -149 l 222 -23 l 260 -23 q 75 53 150 -23 q 0 231 0 128 l 0 579 q 76 758 0 682 q 260 833 152 833 l 376 833 q 561 758 485 833 q 637 556 637 682 l 463 556 q 436 645 463 618 q 376 671 410 671 l 260 671 q 200 645 227 671 q 174 579 174 618 l 174 231 q 200 166 174 192 q 260 139 227 139 l 376 139 q 436 166 410 139 q 463 255 463 192 l 637 255 z "},"É":{"ha":694,"x_min":0,"x_max":637,"o":"m 429 833 l 637 833 l 637 671 l 174 671 l 174 486 l 521 486 l 521 324 l 174 324 l 174 139 l 637 139 l 637 -23 l 0 -23 l 0 833 l 222 833 l 209 846 l 434 1072 l 551 955 l 429 833 z "},"Ñ":{"ha":694,"x_min":0,"x_max":637,"o":"m 637 995 q 578 857 637 916 q 434 799 520 799 q 297 850 348 799 q 203 914 233 914 q 183 905 192 914 q 174 880 174 896 l 174 799 l 0 799 l 0 880 q 58 1018 0 959 q 203 1076 117 1076 q 339 1027 289 1076 q 434 961 405 961 q 454 970 444 961 q 463 995 463 979 l 463 1076 l 637 1076 l 637 995 m 637 -12 l 463 -12 l 463 271 l 174 560 l 174 -12 l 0 -12 l 0 839 l 123 839 l 463 503 l 463 839 l 637 839 l 637 -12 z "},"Ö":{"ha":694,"x_min":0,"x_max":637,"o":"m 521 984 q 497 927 521 951 q 434 903 472 903 q 372 927 396 903 q 347 984 347 951 q 372 1041 347 1016 q 434 1065 396 1065 q 497 1041 472 1065 q 521 984 521 1016 m 289 984 q 265 927 289 951 q 203 903 241 903 q 140 927 164 903 q 116 984 116 951 q 140 1041 116 1016 q 203 1065 164 1065 q 265 1041 241 1065 q 289 984 289 1016 m 637 231 q 561 53 637 128 q 376 -23 485 -23 l 260 -23 q 76 53 152 -23 q 0 231 0 128 l 0 579 q 76 758 0 682 q 260 833 152 833 l 376 833 q 561 758 485 833 q 637 579 637 682 l 637 231 m 463 231 l 463 579 q 436 645 463 618 q 376 671 410 671 l 260 671 q 200 645 227 671 q 174 579 174 618 l 174 231 q 200 166 174 192 q 260 139 227 139 l 376 139 q 436 166 410 139 q 463 231 463 192 z "},"Ü":{"ha":694,"x_min":0,"x_max":637,"o":"m 521 984 q 497 927 521 951 q 434 903 472 903 q 372 927 396 903 q 347 984 347 951 q 372 1041 347 1016 q 434 1065 396 1065 q 497 1041 472 1065 q 521 984 521 1016 m 289 984 q 265 927 289 951 q 203 903 241 903 q 140 927 164 903 q 116 984 116 951 q 140 1041 116 1016 q 203 1065 164 1065 q 265 1041 241 1065 q 289 984 289 1016 m 637 231 q 561 52 637 127 q 376 -23 485 -23 l 260 -23 q 76 52 152 -23 q 0 231 0 127 l 0 833 l 174 833 l 174 231 q 200 166 174 192 q 260 139 227 139 l 376 139 q 436 166 410 139 q 463 231 463 192 l 463 833 l 637 833 l 637 231 z "},"á":{"ha":694,"x_min":0,"x_max":637,"o":"m 551 868 l 325 644 l 208 759 l 434 985 l 551 868 m 637 602 l 637 -23 l 463 -23 l 463 93 l 443 73 q 260 -23 347 -23 q 75 52 150 -23 q 0 231 0 127 l 0 347 q 75 527 0 451 q 260 602 150 602 l 637 602 m 260 440 q 200 413 227 440 q 174 347 174 387 l 174 231 q 200 166 174 192 q 260 139 227 139 q 355 190 304 139 l 463 297 l 463 440 l 260 440 z "},"à":{"ha":694,"x_min":0,"x_max":637,"o":"m 543 759 l 427 644 l 201 868 l 318 985 l 543 759 m 637 602 l 637 -23 l 463 -23 l 463 93 l 443 73 q 260 -23 347 -23 q 75 52 150 -23 q 0 231 0 127 l 0 347 q 75 527 0 451 q 260 602 150 602 l 637 602 m 260 440 q 200 413 227 440 q 174 347 174 387 l 174 231 q 200 166 174 192 q 260 139 227 139 q 355 190 304 139 l 463 297 l 463 440 l 260 440 z "},"â":{"ha":694,"x_min":0,"x_max":637,"o":"m 543 759 l 427 644 l 318 751 l 209 644 l 93 759 l 318 985 l 543 759 m 637 602 l 637 -23 l 463 -23 l 463 93 l 443 73 q 260 -23 347 -23 q 75 52 150 -23 q 0 231 0 127 l 0 347 q 75 527 0 451 q 260 602 150 602 l 637 602 m 260 440 q 200 413 227 440 q 174 347 174 387 l 174 231 q 200 166 174 192 q 260 139 227 139 q 355 190 304 139 l 463 297 l 463 440 l 260 440 z "},"ä":{"ha":694,"x_min":0,"x_max":637,"o":"m 521 752 q 497 696 521 720 q 434 671 472 671 q 372 696 396 671 q 347 752 347 720 q 372 809 347 785 q 434 833 396 833 q 497 809 472 833 q 521 752 521 785 m 289 752 q 265 696 289 720 q 203 671 241 671 q 140 696 164 671 q 116 752 116 720 q 140 809 116 785 q 203 833 164 833 q 265 809 241 833 q 289 752 289 785 m 637 602 l 637 -23 l 463 -23 l 463 93 l 443 73 q 260 -23 347 -23 q 75 52 150 -23 q 0 231 0 127 l 0 347 q 75 527 0 451 q 260 602 150 602 l 637 602 m 260 440 q 200 413 227 440 q 174 347 174 387 l 174 231 q 200 166 174 192 q 260 139 227 139 q 355 190 304 139 l 463 297 l 463 440 l 260 440 z "},"ã":{"ha":694,"x_min":0,"x_max":637,"o":"m 637 868 q 578 730 637 788 q 434 671 520 671 q 297 722 348 671 q 203 787 233 787 q 183 778 192 787 q 174 752 174 769 l 174 671 l 0 671 l 0 752 q 58 891 0 832 q 203 949 117 949 q 339 899 289 949 q 434 833 405 833 q 454 843 444 833 q 463 868 463 852 l 463 949 l 637 949 l 637 868 m 637 602 l 637 -23 l 463 -23 l 463 93 l 443 73 q 260 -23 347 -23 q 75 52 150 -23 q 0 231 0 127 l 0 347 q 75 527 0 451 q 260 602 150 602 l 637 602 m 260 440 q 200 413 227 440 q 174 347 174 387 l 174 231 q 200 166 174 192 q 260 139 227 139 q 355 190 304 139 l 463 297 l 463 440 l 260 440 z "},"å":{"ha":694,"x_min":0,"x_max":637,"o":"m 260 602 q 174 614 233 556 q 116 752 116 672 q 174 891 116 832 q 318 949 233 949 q 462 891 404 949 q 521 752 521 832 q 462 614 521 672 q 404 556 404 556 l 637 602 l 637 -23 l 463 -23 l 463 93 l 443 73 q 260 -23 347 -23 q 75 52 150 -23 q 0 231 0 127 l 0 347 q 75 527 0 451 q 260 602 150 602 m 289 752 q 299 727 289 736 q 318 718 308 718 q 338 727 329 718 q 347 752 347 736 q 338 778 347 769 q 318 787 329 787 q 299 778 308 787 q 289 752 289 769 m 260 440 q 200 413 227 440 q 174 347 174 387 l 174 231 q 200 166 174 192 q 260 139 227 139 q 355 190 304 139 l 463 297 l 463 440 l 260 440 z "},"ç":{"ha":694,"x_min":0,"x_max":637,"o":"m 637 -23 l 417 -23 l 435 -41 l 209 -266 l 93 -149 l 222 -23 l 260 -23 q 75 53 150 -23 q 0 231 0 128 l 0 347 q 76 526 0 450 q 260 602 152 602 l 376 602 q 561 526 485 602 q 637 324 637 450 l 463 324 q 436 413 463 387 q 376 440 410 440 l 260 440 q 200 413 227 440 q 174 347 174 387 l 174 231 q 200 166 174 192 q 260 139 227 139 l 637 139 l 637 -23 z "},"é":{"ha":694,"x_min":0,"x_max":637,"o":"m 551 868 l 325 644 l 208 759 l 434 985 l 551 868 m 637 -23 l 260 -23 q 76 53 152 -23 q 0 231 0 128 l 0 347 q 76 526 0 450 q 260 602 152 602 l 376 602 q 561 526 485 602 q 637 347 637 450 l 637 208 l 174 208 q 200 166 174 192 q 260 139 227 139 l 637 139 l 637 -23 m 463 370 q 436 413 463 387 q 376 440 410 440 l 260 440 q 200 413 227 440 q 174 370 174 387 l 463 370 z "},"è":{"ha":694,"x_min":0,"x_max":637,"o":"m 427 759 l 311 644 l 86 868 l 203 985 l 427 759 m 637 -23 l 260 -23 q 76 53 152 -23 q 0 231 0 128 l 0 347 q 76 526 0 450 q 260 602 152 602 l 376 602 q 561 526 485 602 q 637 347 637 450 l 637 208 l 174 208 q 200 166 174 192 q 260 139 227 139 l 637 139 l 637 -23 m 463 370 q 436 413 463 387 q 376 440 410 440 l 260 440 q 200 413 227 440 q 174 370 174 387 l 463 370 z "},"ê":{"ha":694,"x_min":0,"x_max":637,"o":"m 543 759 l 427 644 l 318 751 l 209 644 l 93 759 l 318 985 l 543 759 m 637 -23 l 260 -23 q 76 53 152 -23 q 0 231 0 128 l 0 347 q 76 526 0 450 q 260 602 152 602 l 376 602 q 561 526 485 602 q 637 347 637 450 l 637 208 l 174 208 q 200 166 174 192 q 260 139 227 139 l 637 139 l 637 -23 m 463 370 q 436 413 463 387 q 376 440 410 440 l 260 440 q 200 413 227 440 q 174 370 174 387 l 463 370 z "},"ë":{"ha":694,"x_min":0,"x_max":637,"o":"m 521 752 q 497 696 521 720 q 434 671 472 671 q 372 696 396 671 q 347 752 347 720 q 372 809 347 785 q 434 833 396 833 q 497 809 472 833 q 521 752 521 785 m 289 752 q 265 696 289 720 q 203 671 241 671 q 140 696 164 671 q 116 752 116 720 q 140 809 116 785 q 203 833 164 833 q 265 809 241 833 q 289 752 289 785 m 637 -23 l 260 -23 q 76 53 152 -23 q 0 231 0 128 l 0 347 q 76 526 0 450 q 260 602 152 602 l 376 602 q 561 526 485 602 q 637 347 637 450 l 637 208 l 174 208 q 200 166 174 192 q 260 139 227 139 l 637 139 l 637 -23 m 463 370 q 436 413 463 387 q 376 440 410 440 l 260 440 q 200 413 227 440 q 174 370 174 387 l 463 370 z "},"í":{"ha":694,"x_min":116,"x_max":551,"o":"m 551 868 l 325 644 l 208 759 l 434 985 l 551 868 m 521 -23 l 116 -23 l 116 139 l 231 139 l 231 440 l 116 440 l 116 602 l 405 602 l 405 139 l 521 139 l 521 -23 z "},"ì":{"ha":694,"x_min":94,"x_max":529,"o":"m 435 759 l 319 644 l 94 868 l 211 985 l 435 759 m 529 -23 l 124 -23 l 124 139 l 240 139 l 240 440 l 124 440 l 124 602 l 413 602 l 413 139 l 529 139 l 529 -23 z "},"î":{"ha":694,"x_min":101,"x_max":551,"o":"m 551 759 l 435 644 l 326 751 l 218 644 l 101 759 l 326 985 l 551 759 m 529 -23 l 124 -23 l 124 139 l 240 139 l 240 440 l 124 440 l 124 602 l 413 602 l 413 139 l 529 139 l 529 -23 z "},"ï":{"ha":694,"x_min":116,"x_max":521,"o":"m 521 752 q 497 696 521 720 q 434 671 472 671 q 372 696 396 671 q 347 752 347 720 q 372 809 347 785 q 434 833 396 833 q 497 809 472 833 q 521 752 521 785 m 289 752 q 265 696 289 720 q 203 671 241 671 q 140 696 164 671 q 116 752 116 720 q 140 809 116 785 q 203 833 164 833 q 265 809 241 833 q 289 752 289 785 m 521 -23 l 116 -23 l 116 139 l 231 139 l 231 440 l 116 440 l 116 602 l 405 602 l 405 139 l 521 139 l 521 -23 z "},"ñ":{"ha":694,"x_min":0,"x_max":637,"o":"m 637 868 q 578 730 637 788 q 434 671 520 671 q 297 722 348 671 q 203 787 233 787 q 183 778 192 787 q 174 752 174 769 l 174 671 l 0 671 l 0 752 q 58 891 0 832 q 203 949 117 949 q 339 899 289 949 q 434 833 405 833 q 454 843 444 833 q 463 868 463 852 l 463 949 l 637 949 l 637 868 m 174 602 l 174 485 l 196 506 q 376 602 291 602 q 561 527 486 602 q 637 347 637 451 l 637 -23 l 463 -23 l 463 347 q 436 413 463 387 q 376 440 410 440 q 281 389 332 440 l 174 281 l 174 -23 l 0 -23 l 0 602 l 174 602 z "},"ó":{"ha":694,"x_min":0,"x_max":637,"o":"m 551 868 l 325 644 l 208 759 l 434 985 l 551 868 m 637 231 q 561 53 637 128 q 376 -23 485 -23 l 260 -23 q 76 53 152 -23 q 0 231 0 128 l 0 347 q 76 526 0 450 q 260 602 152 602 l 376 602 q 561 526 485 602 q 637 347 637 450 l 637 231 m 463 231 l 463 347 q 436 413 463 387 q 376 440 410 440 l 260 440 q 200 413 227 440 q 174 347 174 387 l 174 231 q 200 166 174 192 q 260 139 227 139 l 376 139 q 436 166 410 139 q 463 231 463 192 z "},"ò":{"ha":694,"x_min":0,"x_max":637,"o":"m 427 759 l 311 644 l 86 868 l 203 985 l 427 759 m 637 231 q 561 53 637 128 q 376 -23 485 -23 l 260 -23 q 76 53 152 -23 q 0 231 0 128 l 0 347 q 76 526 0 450 q 260 602 152 602 l 376 602 q 561 526 485 602 q 637 347 637 450 l 637 231 m 463 231 l 463 347 q 436 413 463 387 q 376 440 410 440 l 260 440 q 200 413 227 440 q 174 347 174 387 l 174 231 q 200 166 174 192 q 260 139 227 139 l 376 139 q 436 166 410 139 q 463 231 463 192 z "},"ô":{"ha":694,"x_min":0,"x_max":637,"o":"m 543 759 l 427 644 l 318 751 l 209 644 l 93 759 l 318 985 l 543 759 m 637 231 q 561 53 637 128 q 376 -23 485 -23 l 260 -23 q 76 53 152 -23 q 0 231 0 128 l 0 347 q 76 526 0 450 q 260 602 152 602 l 376 602 q 561 526 485 602 q 637 347 637 450 l 637 231 m 463 231 l 463 347 q 436 413 463 387 q 376 440 410 440 l 260 440 q 200 413 227 440 q 174 347 174 387 l 174 231 q 200 166 174 192 q 260 139 227 139 l 376 139 q 436 166 410 139 q 463 231 463 192 z "},"ö":{"ha":694,"x_min":0,"x_max":637,"o":"m 521 752 q 497 696 521 720 q 434 671 472 671 q 372 696 396 671 q 347 752 347 720 q 372 809 347 785 q 434 833 396 833 q 497 809 472 833 q 521 752 521 785 m 289 752 q 265 696 289 720 q 203 671 241 671 q 140 696 164 671 q 116 752 116 720 q 140 809 116 785 q 203 833 164 833 q 265 809 241 833 q 289 752 289 785 m 637 231 q 561 53 637 128 q 376 -23 485 -23 l 260 -23 q 76 53 152 -23 q 0 231 0 128 l 0 347 q 76 526 0 450 q 260 602 152 602 l 376 602 q 561 526 485 602 q 637 347 637 450 l 637 231 m 463 231 l 463 347 q 436 413 463 387 q 376 440 410 440 l 260 440 q 200 413 227 440 q 174 347 174 387 l 174 231 q 200 166 174 192 q 260 139 227 139 l 376 139 q 436 166 410 139 q 463 231 463 192 z "},"õ":{"ha":694,"x_min":0,"x_max":637,"o":"m 637 868 q 578 730 637 788 q 434 671 520 671 q 297 722 348 671 q 203 787 233 787 q 183 778 192 787 q 174 752 174 769 l 174 671 l 0 671 l 0 752 q 58 891 0 832 q 203 949 117 949 q 339 899 289 949 q 434 833 405 833 q 454 843 444 833 q 463 868 463 852 l 463 949 l 637 949 l 637 868 m 637 231 q 561 53 637 128 q 376 -23 485 -23 l 260 -23 q 76 53 152 -23 q 0 231 0 128 l 0 347 q 76 526 0 450 q 260 602 152 602 l 376 602 q 561 526 485 602 q 637 347 637 450 l 637 231 m 463 231 l 463 347 q 436 413 463 387 q 376 440 410 440 l 260 440 q 200 413 227 440 q 174 347 174 387 l 174 231 q 200 166 174 192 q 260 139 227 139 l 376 139 q 436 166 410 139 q 463 231 463 192 z "},"ú":{"ha":694,"x_min":0,"x_max":637,"o":"m 551 868 l 325 644 l 208 759 l 434 985 l 551 868 m 463 -23 l 463 93 l 443 73 q 260 -23 347 -23 q 75 52 150 -23 q 0 231 0 127 l 0 602 l 174 602 l 174 231 q 200 166 174 192 q 260 139 227 139 q 355 190 304 139 l 463 297 l 463 602 l 637 602 l 637 -23 l 463 -23 z "},"ù":{"ha":694,"x_min":0,"x_max":637,"o":"m 427 759 l 311 644 l 86 868 l 203 985 l 427 759 m 463 -23 l 463 93 l 443 73 q 260 -23 347 -23 q 75 52 150 -23 q 0 231 0 127 l 0 602 l 174 602 l 174 231 q 200 166 174 192 q 260 139 227 139 q 355 190 304 139 l 463 297 l 463 602 l 637 602 l 637 -23 l 463 -23 z "},"û":{"ha":694,"x_min":0,"x_max":637,"o":"m 543 752 l 427 635 l 318 744 l 209 635 l 93 752 l 318 978 l 543 752 m 463 -23 l 463 93 l 443 73 q 260 -23 347 -23 q 75 52 150 -23 q 0 231 0 127 l 0 602 l 174 602 l 174 231 q 200 166 174 192 q 260 139 227 139 q 355 190 304 139 l 463 297 l 463 602 l 637 602 l 637 -23 l 463 -23 z "},"ü":{"ha":694,"x_min":0,"x_max":637,"o":"m 521 752 q 497 696 521 720 q 434 671 472 671 q 372 696 396 671 q 347 752 347 720 q 372 809 347 785 q 434 833 396 833 q 497 809 472 833 q 521 752 521 785 m 289 752 q 265 696 289 720 q 203 671 241 671 q 140 696 164 671 q 116 752 116 720 q 140 809 116 785 q 203 833 164 833 q 265 809 241 833 q 289 752 289 785 m 463 -23 l 463 93 l 443 73 q 260 -23 347 -23 q 75 52 150 -23 q 0 231 0 127 l 0 602 l 174 602 l 174 231 q 200 166 174 192 q 260 139 227 139 q 355 190 304 139 l 463 297 l 463 602 l 637 602 l 637 -23 l 463 -23 z "},"†":{"ha":694,"x_min":116,"x_max":521,"o":"m 521 556 l 405 556 l 405 208 l 231 208 l 231 556 l 116 556 l 116 718 l 231 718 l 231 833 l 405 833 l 405 718 l 521 718 l 521 556 z "},"°":{"ha":694,"x_min":116,"x_max":637,"o":"m 637 694 q 561 516 637 591 q 376 440 486 440 q 192 516 267 440 q 116 694 116 591 q 192 874 116 799 q 376 949 267 949 q 561 873 485 949 q 637 694 637 797 m 463 694 q 436 760 463 734 q 376 787 410 787 q 316 760 343 787 q 289 694 289 734 q 316 628 289 655 q 376 602 343 602 q 436 628 410 602 q 463 694 463 655 z "},"¢":{"ha":694,"x_min":0,"x_max":637,"o":"m 637 -23 l 405 -23 l 405 -138 l 231 -138 l 231 -23 q 76 53 152 -23 q 0 231 0 128 l 0 347 q 76 526 0 450 q 231 602 152 602 l 231 718 l 405 718 l 405 602 q 561 526 485 602 q 637 324 637 450 l 463 324 q 436 413 463 387 q 405 440 410 440 l 405 139 l 637 139 l 637 -23 m 231 139 l 231 440 q 200 413 227 440 q 174 347 174 387 l 174 231 q 200 166 174 192 q 231 139 227 139 z "},"£":{"ha":694,"x_min":0,"x_max":637,"o":"m 637 255 q 558 55 637 133 q 376 -23 480 -23 l 0 -23 l 0 694 q 76 873 0 797 q 260 949 152 949 q 445 873 369 949 q 521 671 521 797 l 347 671 q 321 760 347 734 q 260 787 294 787 q 200 760 227 787 q 174 694 174 734 l 174 602 l 405 602 l 405 440 l 174 440 l 174 139 l 376 139 q 433 168 404 139 q 463 255 463 198 l 637 255 z "},"§":{"ha":694,"x_min":0,"x_max":637,"o":"m 637 208 l 463 208 l 463 375 l 65 773 q 32 850 32 804 q 105 994 32 922 q 260 1065 178 1065 l 376 1065 q 561 990 486 1065 q 637 810 637 914 l 637 789 q 588 671 637 574 l 463 671 l 463 810 q 436 876 463 850 q 376 903 410 903 l 247 903 q 227 894 236 903 q 218 868 218 884 q 220 853 218 856 l 637 435 l 637 208 m 572 153 q 604 76 604 122 q 531 -67 604 3 q 376 -138 458 -138 l 260 -138 q 76 -62 152 -138 q 0 116 0 13 l 0 255 l 174 255 l 174 116 q 200 50 174 76 q 260 23 227 23 l 391 23 q 410 32 400 23 q 420 58 420 42 q 417 74 420 68 l 0 491 l 0 718 l 174 718 l 174 551 l 572 153 z "},"•":{"ha":694,"x_min":0,"x_max":637,"o":"m 637 405 q 545 185 637 277 q 318 93 453 93 q 92 185 184 93 q 0 405 0 277 q 93 626 0 534 q 318 718 185 718 q 545 626 453 718 q 637 405 637 534 z "},"¶":{"ha":694,"x_min":0,"x_max":637,"o":"m 637 -23 l 463 -23 l 463 324 l 405 324 l 405 -23 l 231 -23 l 231 334 q 72 439 144 352 q 0 637 0 525 q 92 857 0 765 q 318 949 184 949 l 637 949 l 637 -23 m 463 486 l 463 787 l 405 787 l 405 486 l 463 486 m 231 508 l 231 764 q 201 725 229 763 q 174 637 174 686 q 201 548 174 587 q 231 508 229 509 z "},"ß":{"ha":694,"x_min":0,"x_max":637,"o":"m 637 231 q 561 52 637 127 q 376 -23 485 -23 l 231 -23 l 231 139 l 376 139 q 436 166 410 139 q 463 231 463 192 q 405 322 463 288 q 347 434 347 356 l 347 492 q 384 584 347 547 q 440 633 416 611 q 463 694 463 656 q 436 760 463 734 q 376 787 410 787 q 351 784 358 787 l 199 634 q 174 568 174 608 l 174 -138 l 0 -138 l 0 586 q 56 722 0 667 l 282 949 l 376 949 q 561 874 486 949 q 637 694 637 799 q 532 491 637 569 q 521 463 521 483 q 532 435 521 444 q 637 231 637 354 z "},"®":{"ha":694,"x_min":0,"x_max":637,"o":"m 637 318 q 570 159 637 226 q 405 93 503 93 l 281 93 l 167 208 l 174 208 l 174 93 l 0 93 l 0 602 l 203 602 q 347 543 288 602 q 405 405 405 485 q 346 265 405 310 l 356 255 l 361 255 q 432 285 402 255 q 463 362 463 316 l 463 405 q 386 594 463 517 q 203 671 309 671 q 0 584 119 671 l 0 784 q 203 833 103 833 q 510 707 384 833 q 637 405 637 581 l 637 318 m 231 405 q 222 431 231 421 q 203 440 213 440 l 174 440 l 174 370 l 203 370 q 222 380 213 370 q 231 405 231 389 z "},"©":{"ha":694,"x_min":0,"x_max":637,"o":"m 637 405 q 510 103 637 229 q 203 -23 384 -23 q 0 27 103 -23 l 0 227 q 203 139 117 139 q 386 216 309 139 q 463 405 463 293 q 386 594 463 517 q 203 671 309 671 q 0 584 119 671 l 0 784 q 203 833 103 833 q 510 707 384 833 q 637 405 637 581 m 405 208 l 203 208 q 58 267 117 208 q 0 405 0 325 q 58 543 0 485 q 203 602 117 602 l 405 602 l 405 440 l 203 440 q 183 431 192 440 q 174 405 174 421 q 183 380 174 389 q 203 370 192 370 l 405 370 l 405 208 z "},"™":{"ha":694,"x_min":0,"x_max":752,"o":"m 752 440 l 579 440 l 579 516 l 550 458 l 521 516 l 521 440 l 347 440 l 347 671 l 289 671 l 289 440 l 116 440 l 116 671 l 0 671 l 0 833 l 512 833 l 550 757 l 588 833 l 752 833 l 752 440 z "},"´":{"ha":694,"x_min":222,"x_max":565,"o":"m 339 644 l 222 759 l 448 985 l 565 868 l 339 644 z "},"¨":{"ha":694,"x_min":116,"x_max":521,"o":"m 521 752 q 497 696 521 720 q 434 671 472 671 q 372 696 396 671 q 347 752 347 720 q 372 809 347 785 q 434 833 396 833 q 497 809 472 833 q 521 752 521 785 m 289 752 q 265 696 289 720 q 203 671 241 671 q 140 696 164 671 q 116 752 116 720 q 140 809 116 785 q 203 833 164 833 q 265 809 241 833 q 289 752 289 785 z "},"Æ":{"ha":694,"x_min":0,"x_max":637,"o":"m 637 -23 l 231 -23 l 231 324 l 174 324 l 174 -23 l 0 -23 l 0 579 q 76 758 0 683 q 260 833 152 833 l 637 833 l 637 671 l 405 671 l 405 486 l 521 486 l 521 324 l 405 324 l 405 139 l 637 139 l 637 -23 m 231 486 l 231 671 q 200 645 227 671 q 174 579 174 618 l 174 486 l 231 486 z "},"Ø":{"ha":694,"x_min":0,"x_max":637,"o":"m 637 231 q 561 53 637 128 q 376 -23 485 -23 l 260 -23 q 76 53 152 -23 q 0 231 0 128 l 0 579 q 76 758 0 682 q 260 833 152 833 l 376 833 q 561 758 485 833 q 637 579 637 682 l 637 231 m 440 644 q 376 671 422 671 l 260 671 q 200 645 227 671 q 174 579 174 618 l 174 377 l 440 644 m 463 231 l 463 431 l 199 167 q 260 139 216 139 l 376 139 q 436 166 410 139 q 463 231 463 192 z "},"±":{"ha":694,"x_min":0,"x_max":637,"o":"m 637 -23 l 0 -23 l 0 139 l 231 139 l 231 324 l 0 324 l 0 486 l 231 486 l 231 718 l 405 718 l 405 486 l 637 486 l 637 324 l 405 324 l 405 139 l 637 139 l 637 -23 z "},"¥":{"ha":694,"x_min":0,"x_max":694,"o":"m 694 752 l 544 602 l 666 602 l 666 440 l 434 440 l 434 370 l 666 370 l 666 208 l 434 208 l 434 -23 l 260 -23 l 260 208 l 29 208 l 29 370 l 260 370 l 260 440 l 29 440 l 29 602 l 149 602 l 0 752 l 116 869 l 347 638 l 579 869 l 694 752 z "},"µ":{"ha":694,"x_min":0,"x_max":637,"o":"m 637 -23 q 434 38 488 -23 q 260 -23 382 -23 l 174 -23 l 174 -253 l 0 -253 l 0 602 l 174 602 l 174 139 l 260 139 q 321 166 294 139 q 347 231 347 192 l 347 602 l 521 602 l 521 231 q 547 166 521 192 q 637 139 574 139 l 637 -23 z "},"μ":{"ha":694,"x_min":0,"x_max":637,"o":"m 637 -23 q 434 38 488 -23 q 260 -23 382 -23 l 174 -23 l 174 -253 l 0 -253 l 0 602 l 174 602 l 174 139 l 260 139 q 321 166 294 139 q 347 231 347 192 l 347 602 l 521 602 l 521 231 q 547 166 521 192 q 637 139 574 139 l 637 -23 z "},"ª":{"ha":694,"x_min":116,"x_max":637,"o":"m 637 556 l 376 556 q 192 631 267 556 q 116 810 116 707 q 192 989 116 913 q 376 1065 267 1065 l 637 1065 l 637 556 m 637 324 l 116 324 l 116 486 l 637 486 l 637 324 m 463 718 l 463 903 l 376 903 q 316 876 343 903 q 289 810 289 850 q 316 744 289 771 q 376 718 343 718 l 463 718 z "},"º":{"ha":694,"x_min":116,"x_max":637,"o":"m 637 810 q 561 631 637 707 q 376 556 486 556 q 192 631 267 556 q 116 810 116 706 q 192 990 116 914 q 376 1065 267 1065 q 561 989 485 1065 q 637 810 637 913 m 637 324 l 116 324 l 116 486 l 637 486 l 637 324 m 463 810 q 436 876 463 850 q 376 903 410 903 q 316 876 343 903 q 289 810 289 850 q 316 744 289 771 q 376 718 343 718 q 436 744 410 718 q 463 810 463 771 z "},"æ":{"ha":694,"x_min":0,"x_max":637,"o":"m 637 -23 l 260 -23 q 76 53 152 -23 q 0 231 0 128 l 0 347 q 76 526 0 450 q 260 602 152 602 l 376 602 q 561 526 485 602 q 637 347 637 450 l 637 208 l 405 208 l 405 139 l 637 139 l 637 -23 m 463 370 q 436 413 463 387 q 405 440 410 440 l 405 370 l 463 370 m 231 139 l 231 440 q 200 413 227 440 q 174 347 174 387 l 174 231 q 200 166 174 192 q 231 139 227 139 z "},"ø":{"ha":694,"x_min":0,"x_max":637,"o":"m 637 231 q 561 53 637 128 q 376 -23 485 -23 l 260 -23 q 76 53 152 -23 q 0 231 0 128 l 0 347 q 76 526 0 450 q 260 602 152 602 l 376 602 q 561 526 485 602 q 637 347 637 450 l 637 231 m 358 447 q 376 440 383 440 l 260 440 q 200 413 227 440 q 174 347 174 387 l 174 231 q 167 257 174 229 l 358 447 m 463 231 l 463 347 q 471 324 463 360 l 280 132 q 260 139 255 139 l 376 139 q 436 166 410 139 q 463 231 463 192 z "},"¿":{"ha":694,"x_min":0,"x_max":637,"o":"m 405 752 q 381 696 405 720 q 318 671 356 671 q 256 696 280 671 q 231 752 231 720 q 256 809 231 785 q 318 833 280 833 q 381 809 356 833 q 405 752 405 785 m 637 255 q 561 53 637 128 q 376 -23 485 -23 l 260 -23 q 76 52 152 -23 q 0 231 0 127 q 29 350 0 294 l 282 602 l 405 602 l 405 491 l 178 263 q 174 231 174 253 q 200 166 174 192 q 260 139 227 139 l 376 139 q 436 166 410 139 q 463 255 463 192 l 637 255 z "},"¡":{"ha":694,"x_min":347,"x_max":521,"o":"m 521 752 q 497 696 521 720 q 434 671 472 671 q 372 696 396 671 q 347 752 347 720 q 372 809 347 785 q 434 833 396 833 q 497 809 472 833 q 521 752 521 785 m 521 -23 l 347 -23 l 347 602 l 521 602 l 521 -23 z "},"¬":{"ha":694,"x_min":0,"x_max":637,"o":"m 637 93 l 463 93 l 463 324 l 0 324 l 0 486 l 637 486 l 637 93 z "},"ƒ":{"ha":694,"x_min":0,"x_max":637,"o":"m 637 903 l 492 903 q 432 876 458 903 q 405 810 405 850 l 405 602 l 521 602 l 521 440 l 405 440 l 405 0 q 329 -177 405 -101 q 145 -253 253 -253 l 0 -253 l 0 -91 l 145 -91 q 205 -65 178 -91 q 231 0 231 -38 l 231 440 l 116 440 l 116 602 l 231 602 l 231 810 q 307 989 231 913 q 492 1065 383 1065 l 637 1065 l 637 903 z "},"«":{"ha":694,"x_min":0,"x_max":633,"o":"m 633 0 l 475 -66 l 347 231 l 475 531 l 633 464 l 530 231 l 633 0 m 286 0 l 127 -66 l 0 231 l 127 531 l 286 464 l 183 231 l 286 0 z "},"»":{"ha":694,"x_min":12,"x_max":644,"o":"m 644 231 l 516 -66 l 358 0 l 461 231 l 358 464 l 516 531 l 644 231 m 296 231 l 169 -66 l 12 0 l 113 231 l 12 464 l 169 531 l 296 231 z "},"…":{"ha":694,"x_min":0,"x_max":637,"o":"m 637 58 q 612 1 637 25 q 550 -23 588 -23 q 487 1 512 -23 q 463 58 463 25 q 487 115 463 90 q 550 139 512 139 q 612 115 588 139 q 637 58 637 90 m 405 58 q 381 1 405 25 q 318 -23 356 -23 q 256 1 280 -23 q 231 58 231 25 q 256 115 231 90 q 318 139 280 139 q 381 115 356 139 q 405 58 405 90 m 174 58 q 149 1 174 25 q 87 -23 125 -23 q 24 1 49 -23 q 0 58 0 25 q 24 115 0 90 q 87 139 49 139 q 149 115 125 139 q 174 58 174 90 z "},"À":{"ha":694,"x_min":0,"x_max":637,"o":"m 215 833 l 86 962 l 203 1079 l 427 854 l 406 833 l 411 833 l 637 381 l 637 -23 l 463 -23 l 463 208 l 174 208 l 174 -23 l 0 -23 l 0 381 l 227 833 l 215 833 m 318 632 l 188 370 l 449 370 l 318 632 z "},"Ã":{"ha":694,"x_min":0,"x_max":637,"o":"m 637 984 q 578 845 637 904 q 434 787 520 787 q 297 838 348 787 q 203 903 233 903 q 183 894 192 903 q 174 868 174 884 l 174 787 l 0 787 l 0 868 q 58 1006 0 948 q 203 1065 117 1065 q 339 1015 289 1065 q 434 949 405 949 q 454 958 444 949 q 463 984 463 968 l 463 1065 l 637 1065 l 637 984 m 174 208 l 174 -23 l 0 -23 l 0 381 l 227 833 l 411 833 l 637 381 l 637 -23 l 463 -23 l 463 208 l 174 208 m 318 632 l 188 370 l 449 370 l 318 632 z "},"Õ":{"ha":694,"x_min":0,"x_max":637,"o":"m 637 984 q 578 845 637 904 q 434 787 520 787 q 297 838 348 787 q 203 903 233 903 q 183 894 192 903 q 174 868 174 884 l 174 787 l 0 787 l 0 868 q 58 1006 0 948 q 203 1065 117 1065 q 339 1015 289 1065 q 434 949 405 949 q 454 958 444 949 q 463 984 463 968 l 463 1065 l 637 1065 l 637 984 m 637 231 q 561 53 637 128 q 376 -23 485 -23 l 260 -23 q 76 53 152 -23 q 0 231 0 128 l 0 579 q 76 758 0 682 q 260 833 152 833 l 376 833 q 561 758 485 833 q 637 579 637 682 l 637 231 m 463 231 l 463 579 q 436 645 463 618 q 376 671 410 671 l 260 671 q 200 645 227 671 q 174 579 174 618 l 174 231 q 200 166 174 192 q 260 139 227 139 l 376 139 q 436 166 410 139 q 463 231 463 192 z "},"Œ":{"ha":694,"x_min":0,"x_max":637,"o":"m 637 -23 l 260 -23 q 76 53 152 -23 q 0 231 0 128 l 0 579 q 76 758 0 682 q 260 833 152 833 l 637 833 l 637 671 l 405 671 l 405 486 l 521 486 l 521 324 l 405 324 l 405 139 l 637 139 l 637 -23 m 231 139 l 231 671 q 200 645 227 671 q 174 579 174 618 l 174 231 q 200 166 174 192 q 231 139 227 139 z "},"œ":{"ha":694,"x_min":0,"x_max":637,"o":"m 637 -23 l 434 -23 q 321 10 358 -23 q 203 -23 285 -23 q 58 35 117 -23 q 0 174 0 94 l 0 405 q 58 543 0 485 q 203 602 117 602 q 322 567 284 602 q 434 602 359 602 q 578 543 520 602 q 637 405 637 485 l 637 208 l 434 208 q 414 199 424 208 q 405 174 405 190 q 414 148 405 157 q 434 139 424 139 l 637 139 l 637 -23 m 463 405 q 454 431 463 421 q 434 440 444 440 q 414 431 424 440 q 405 405 405 421 q 414 380 405 389 q 434 370 424 370 q 454 380 444 370 q 463 405 463 389 m 231 174 l 231 405 q 222 431 231 421 q 203 440 213 440 q 183 431 192 440 q 174 405 174 421 l 174 174 q 183 148 174 157 q 203 139 192 139 q 222 148 213 139 q 231 174 231 157 z "},"–":{"ha":694,"x_min":116,"x_max":521,"o":"m 521 324 l 116 324 l 116 486 l 521 486 l 521 324 z "},"—":{"ha":694,"x_min":0,"x_max":752,"o":"m 752 324 l 0 324 l 0 486 l 752 486 l 752 324 z "},"“":{"ha":694,"x_min":116,"x_max":634,"o":"m 634 766 l 550 681 q 521 616 521 652 l 521 440 l 347 440 l 347 617 q 424 793 347 716 l 516 885 l 634 766 m 403 766 l 318 681 q 289 616 289 652 l 289 440 l 116 440 l 116 617 q 192 793 116 716 l 285 885 l 403 766 z "},"”":{"ha":694,"x_min":126,"x_max":645,"o":"m 645 656 q 568 480 645 557 l 476 388 l 358 507 l 442 593 q 471 657 471 622 l 471 833 l 645 833 l 645 656 m 413 656 q 337 480 413 557 l 244 388 l 126 507 l 211 593 q 240 657 240 622 l 240 833 l 413 833 l 413 656 z "},"‘":{"ha":694,"x_min":231,"x_max":519,"o":"m 519 766 l 434 681 q 405 616 405 652 l 405 440 l 231 440 l 231 617 q 308 793 231 716 l 400 885 l 519 766 z "},"’":{"ha":694,"x_min":242,"x_max":529,"o":"m 529 656 q 453 480 529 557 l 360 388 l 242 507 l 326 593 q 355 657 355 622 l 355 833 l 529 833 l 529 656 z "},"÷":{"ha":694,"x_min":0,"x_max":637,"o":"m 405 637 q 381 580 405 604 q 318 556 356 556 q 256 580 280 556 q 231 637 231 604 q 256 693 231 669 q 318 718 280 718 q 381 693 356 718 q 405 637 405 669 m 637 324 l 0 324 l 0 486 l 637 486 l 637 324 m 405 174 q 381 117 405 141 q 318 93 356 93 q 256 117 280 93 q 231 174 231 141 q 256 230 231 206 q 318 255 280 255 q 381 230 356 255 q 405 174 405 206 z "},"ÿ":{"ha":694,"x_min":0,"x_max":637,"o":"m 521 752 q 497 696 521 720 q 434 671 472 671 q 372 696 396 671 q 347 752 347 720 q 372 809 347 785 q 434 833 396 833 q 497 809 472 833 q 521 752 521 785 m 289 752 q 265 696 289 720 q 203 671 241 671 q 140 696 164 671 q 116 752 116 720 q 140 809 116 785 q 203 833 164 833 q 265 809 241 833 q 289 752 289 785 m 637 0 q 561 -178 637 -102 q 376 -253 485 -253 l 116 -253 l 116 -91 l 376 -91 q 436 -65 410 -91 q 463 -23 463 -38 l 260 -23 q 76 53 152 -23 q 0 231 0 128 l 0 602 l 174 602 l 174 231 q 200 166 174 192 q 260 139 227 139 l 463 139 l 463 602 l 637 602 l 637 0 z "},"Ÿ":{"ha":694,"x_min":0,"x_max":637,"o":"m 521 984 q 497 927 521 951 q 434 903 472 903 q 372 927 396 903 q 347 984 347 951 q 372 1041 347 1016 q 434 1065 396 1065 q 497 1041 472 1065 q 521 984 521 1016 m 289 984 q 265 927 289 951 q 203 903 241 903 q 140 927 164 903 q 116 984 116 951 q 140 1041 116 1016 q 203 1065 164 1065 q 265 1041 241 1065 q 289 984 289 1016 m 637 491 l 405 259 l 405 -23 l 231 -23 l 231 259 l 0 491 l 0 833 l 174 833 l 174 551 l 318 406 l 463 551 l 463 833 l 637 833 l 637 491 z "},"‹":{"ha":694,"x_min":0,"x_max":286,"o":"m 286 0 l 127 -66 l 0 231 l 127 531 l 286 464 l 183 231 l 286 0 z "},"›":{"ha":694,"x_min":12,"x_max":296,"o":"m 296 231 l 169 -66 l 12 0 l 113 231 l 12 464 l 169 531 l 296 231 z "},"‡":{"ha":694,"x_min":116,"x_max":521,"o":"m 521 324 l 405 324 l 405 208 l 231 208 l 231 324 l 116 324 l 116 486 l 231 486 l 231 556 l 116 556 l 116 718 l 231 718 l 231 833 l 405 833 l 405 718 l 521 718 l 521 556 l 405 556 l 405 486 l 521 486 l 521 324 z "},"·":{"ha":694,"x_min":231,"x_max":521,"o":"m 521 376 q 479 279 521 321 q 376 237 438 237 q 273 279 315 237 q 231 376 231 321 q 273 473 231 432 q 376 515 315 515 q 479 473 438 515 q 521 376 521 432 z "},"∙":{"ha":694,"x_min":231,"x_max":521,"o":"m 521 376 q 479 279 521 321 q 376 237 438 237 q 273 279 315 237 q 231 376 231 321 q 273 473 231 432 q 376 515 315 515 q 479 473 438 515 q 521 376 521 432 z "},"‚":{"ha":694,"x_min":10,"x_max":296,"o":"m 296 78 q 220 -97 296 -20 l 127 -189 l 10 -69 l 96 16 q 123 79 123 43 l 123 255 l 296 255 l 296 78 z "},"„":{"ha":694,"x_min":10,"x_max":528,"o":"m 528 78 q 451 -97 528 -20 l 359 -189 l 241 -69 l 328 16 q 354 79 354 43 l 354 255 l 528 255 l 528 78 m 296 78 q 220 -97 296 -20 l 127 -189 l 10 -69 l 96 16 q 123 79 123 43 l 123 255 l 296 255 l 296 78 z "},"‰":{"ha":694,"x_min":6,"x_max":758,"o":"m 758 231 q 701 53 758 130 q 556 -23 644 -23 q 440 19 476 -23 q 324 -23 405 -23 q 179 53 236 -23 q 122 231 122 130 q 106 185 122 257 l 6 83 l 6 322 l 135 451 q 55 528 104 456 q 6 694 6 601 q 63 873 6 796 q 208 949 120 949 l 758 949 l 758 836 l 398 476 q 440 446 417 473 q 556 486 475 486 q 701 410 644 486 q 758 231 758 333 m 471 787 l 399 787 q 411 694 411 762 q 416 731 411 681 l 471 787 m 237 694 q 225 762 237 737 q 208 787 213 787 q 192 762 204 787 q 179 694 179 737 q 192 627 179 652 q 208 602 204 602 q 225 627 213 602 q 237 694 237 652 m 584 231 q 572 299 584 274 q 556 324 560 324 q 539 299 551 324 q 527 231 527 274 q 539 164 527 189 q 556 139 551 139 q 572 164 560 139 q 584 231 584 189 m 353 231 q 341 299 353 274 q 324 324 329 324 q 307 299 319 324 q 295 231 295 274 q 307 164 295 189 q 324 139 319 139 q 341 164 329 139 q 353 231 353 189 z "},"Â":{"ha":694,"x_min":0,"x_max":637,"o":"m 318 846 l 209 737 l 93 854 l 318 1079 l 544 854 l 427 737 l 318 846 m 174 208 l 174 -23 l 0 -23 l 0 381 l 227 833 l 411 833 l 637 381 l 637 -23 l 463 -23 l 463 208 l 174 208 m 318 632 l 188 370 l 449 370 l 318 632 z "},"Ê":{"ha":694,"x_min":0,"x_max":637,"o":"m 637 -23 l 0 -23 l 0 833 l 112 833 l 93 853 l 318 1079 l 543 853 l 523 833 l 637 833 l 637 671 l 174 671 l 174 486 l 521 486 l 521 324 l 174 324 l 174 139 l 637 139 l 637 -23 m 331 833 l 318 845 l 306 833 l 331 833 z "},"Á":{"ha":694,"x_min":0,"x_max":637,"o":"m 422 833 l 411 833 l 637 381 l 637 -23 l 463 -23 l 463 208 l 174 208 l 174 -23 l 0 -23 l 0 381 l 227 833 l 230 833 l 209 854 l 434 1079 l 551 962 l 422 833 m 318 632 l 188 370 l 449 370 l 318 632 z "},"Ë":{"ha":694,"x_min":0,"x_max":637,"o":"m 521 984 q 497 927 521 951 q 434 903 472 903 q 372 927 396 903 q 347 984 347 951 q 372 1041 347 1016 q 434 1065 396 1065 q 497 1041 472 1065 q 521 984 521 1016 m 289 984 q 265 927 289 951 q 203 903 241 903 q 140 927 164 903 q 116 984 116 951 q 140 1041 116 1016 q 203 1065 164 1065 q 265 1041 241 1065 q 289 984 289 1016 m 637 -23 l 0 -23 l 0 833 l 637 833 l 637 671 l 174 671 l 174 486 l 521 486 l 521 324 l 174 324 l 174 139 l 637 139 l 637 -23 z "},"È":{"ha":694,"x_min":0,"x_max":637,"o":"m 407 833 l 637 833 l 637 671 l 174 671 l 174 486 l 521 486 l 521 324 l 174 324 l 174 139 l 637 139 l 637 -23 l 0 -23 l 0 833 l 215 833 l 86 962 l 203 1079 l 428 854 l 407 833 z "},"Í":{"ha":694,"x_min":0,"x_max":637,"o":"m 422 833 l 637 833 l 637 671 l 405 671 l 405 139 l 637 139 l 637 -23 l 0 -23 l 0 139 l 231 139 l 231 671 l 0 671 l 0 833 l 230 833 l 209 854 l 434 1079 l 551 962 l 422 833 z "},"Î":{"ha":694,"x_min":0,"x_max":637,"o":"m 637 -23 l 0 -23 l 0 139 l 231 139 l 231 671 l 0 671 l 0 833 l 116 833 q 93 853 139 808 l 318 1079 l 543 853 l 523 833 l 637 833 l 637 671 l 405 671 l 405 139 l 637 139 l 637 -23 m 332 833 q 318 846 348 816 l 306 833 l 332 833 z "},"Ï":{"ha":694,"x_min":0,"x_max":637,"o":"m 521 984 q 497 927 521 951 q 434 903 472 903 q 372 927 396 903 q 347 984 347 951 q 372 1041 347 1016 q 434 1065 396 1065 q 497 1041 472 1065 q 521 984 521 1016 m 289 984 q 265 927 289 951 q 203 903 241 903 q 140 927 164 903 q 116 984 116 951 q 140 1041 116 1016 q 203 1065 164 1065 q 265 1041 241 1065 q 289 984 289 1016 m 637 -23 l 0 -23 l 0 139 l 231 139 l 231 671 l 0 671 l 0 833 l 637 833 l 637 671 l 405 671 l 405 139 l 637 139 l 637 -23 z "},"Ì":{"ha":694,"x_min":0,"x_max":637,"o":"m 215 833 l 86 962 l 203 1079 l 428 854 l 407 833 l 637 833 l 637 671 l 405 671 l 405 139 l 637 139 l 637 -23 l 0 -23 l 0 139 l 231 139 l 231 671 l 0 671 l 0 833 l 215 833 z "},"Ó":{"ha":694,"x_min":0,"x_max":637,"o":"m 209 854 l 434 1079 l 551 962 l 422 833 l 376 833 q 561 758 486 833 q 637 579 637 683 l 637 231 q 561 52 637 127 q 376 -23 486 -23 l 260 -23 q 75 52 150 -23 q 0 231 0 127 l 0 579 q 75 758 0 683 q 260 833 150 833 l 230 833 l 209 854 m 376 671 l 260 671 q 200 645 227 671 q 174 579 174 618 l 174 231 q 200 166 174 192 q 260 139 227 139 l 376 139 q 436 166 410 139 q 463 231 463 192 l 463 579 q 436 645 463 618 q 376 671 410 671 z "},"Ô":{"ha":694,"x_min":0,"x_max":637,"o":"m 637 231 q 561 53 637 128 q 376 -23 485 -23 l 260 -23 q 76 53 152 -23 q 0 231 0 128 l 0 579 q 49 725 0 659 q 139 807 97 792 l 93 853 l 318 1079 l 543 853 l 497 807 q 588 726 539 793 q 637 579 637 660 l 637 231 m 331 833 l 318 845 l 306 833 l 331 833 m 463 231 l 463 579 q 436 645 463 618 q 376 671 410 671 l 260 671 q 200 645 227 671 q 174 579 174 618 l 174 231 q 200 166 174 192 q 260 139 227 139 l 376 139 q 436 166 410 139 q 463 231 463 192 z "},"Ò":{"ha":694,"x_min":0,"x_max":637,"o":"m 407 833 l 376 833 q 561 758 486 833 q 637 579 637 683 l 637 231 q 561 52 637 127 q 376 -23 486 -23 l 260 -23 q 75 52 150 -23 q 0 231 0 127 l 0 579 q 75 758 0 683 q 260 833 150 833 l 215 833 l 86 962 l 203 1079 l 428 854 l 407 833 m 376 671 l 260 671 q 200 645 227 671 q 174 579 174 618 l 174 231 q 200 166 174 192 q 260 139 227 139 l 376 139 q 436 166 410 139 q 463 231 463 192 l 463 579 q 436 645 463 618 q 376 671 410 671 z "},"Ú":{"ha":694,"x_min":0,"x_max":637,"o":"m 551 962 l 325 737 l 208 853 l 434 1079 l 551 962 m 637 231 q 561 52 637 127 q 376 -23 485 -23 l 260 -23 q 76 52 152 -23 q 0 231 0 127 l 0 833 l 174 833 l 174 231 q 200 166 174 192 q 260 139 227 139 l 376 139 q 436 166 410 139 q 463 231 463 192 l 463 833 l 637 833 l 637 231 z "},"Û":{"ha":694,"x_min":0,"x_max":637,"o":"m 543 853 l 427 737 l 318 845 l 209 737 l 93 853 l 318 1079 l 543 853 m 637 231 q 561 52 637 127 q 376 -23 485 -23 l 260 -23 q 76 52 152 -23 q 0 231 0 127 l 0 833 l 174 833 l 174 231 q 200 166 174 192 q 260 139 227 139 l 376 139 q 436 166 410 139 q 463 231 463 192 l 463 833 l 637 833 l 637 231 z "},"Ù":{"ha":694,"x_min":0,"x_max":637,"o":"m 427 853 l 311 737 l 86 962 l 203 1079 l 427 853 m 637 231 q 561 52 637 127 q 376 -23 485 -23 l 260 -23 q 76 52 152 -23 q 0 231 0 127 l 0 833 l 174 833 l 174 231 q 200 166 174 192 q 260 139 227 139 l 376 139 q 436 166 410 139 q 463 231 463 192 l 463 833 l 637 833 l 637 231 z "},"ı":{"ha":694,"x_min":116,"x_max":521,"o":"m 521 -23 l 116 -23 l 116 139 l 231 139 l 231 440 l 116 440 l 116 602 l 405 602 l 405 139 l 521 139 l 521 -23 z "},"ˆ":{"ha":694,"x_min":101,"x_max":551,"o":"m 551 759 l 435 644 l 326 751 l 218 644 l 101 759 l 326 985 l 551 759 z "},"˜":{"ha":694,"x_min":0,"x_max":637,"o":"m 637 868 q 578 730 637 788 q 434 671 520 671 q 297 722 348 671 q 203 787 233 787 q 183 778 192 787 q 174 752 174 769 l 174 671 l 0 671 l 0 752 q 58 891 0 832 q 203 949 117 949 q 339 899 289 949 q 434 833 405 833 q 454 843 444 833 q 463 868 463 852 l 463 949 l 637 949 l 637 868 z "},"¯":{"ha":694,"x_min":116,"x_max":521,"o":"m 521 671 l 116 671 l 116 833 l 521 833 l 521 671 z "},"ˉ":{"ha":694,"x_min":116,"x_max":521,"o":"m 521 671 l 116 671 l 116 833 l 521 833 l 521 671 z "},"˘":{"ha":694,"x_min":122,"x_max":610,"o":"m 584 949 q 610 850 610 895 q 567 748 610 791 q 382 671 491 671 q 197 747 272 671 q 122 949 122 822 l 295 949 q 322 860 295 887 q 382 833 348 833 q 442 860 416 833 q 469 949 469 887 l 584 949 z "},"˙":{"ha":694,"x_min":237,"x_max":527,"o":"m 527 694 q 485 597 527 639 q 382 556 443 556 q 279 597 321 556 q 237 694 237 639 q 279 792 237 750 q 382 833 321 833 q 485 792 443 833 q 527 694 527 750 z "},"˚":{"ha":694,"x_min":122,"x_max":527,"o":"m 353 752 q 344 778 353 769 q 324 787 334 787 q 304 778 314 787 q 295 752 295 769 q 304 727 295 736 q 324 718 314 718 q 344 727 334 718 q 353 752 353 736 m 527 752 q 468 614 527 672 q 324 556 410 556 q 180 614 238 556 q 122 752 122 672 q 180 891 122 832 q 324 949 238 949 q 468 891 410 949 q 527 752 527 832 z "},"¸":{"ha":694,"x_min":101,"x_max":413,"o":"m 218 -266 l 101 -149 l 240 -13 l 240 -23 l 124 -23 l 124 139 l 413 139 l 413 -71 l 218 -266 z "},"˝":{"ha":694,"x_min":6,"x_max":679,"o":"m 122 644 l 6 759 l 229 985 l 346 868 l 122 644 m 454 644 l 337 759 l 563 985 l 679 868 l 454 644 z "},"˛":{"ha":694,"x_min":116,"x_max":427,"o":"m 427 -149 l 311 -266 l 116 -71 l 116 139 l 405 139 l 405 -23 l 289 -23 l 289 -13 l 427 -149 z "},"ˇ":{"ha":694,"x_min":98,"x_max":549,"o":"m 549 869 l 324 644 l 98 869 l 215 985 l 324 877 l 433 985 l 549 869 z "},"¤":{"ha":694,"x_min":0,"x_max":652,"o":"m 652 82 l 532 -36 l 394 103 q 325 93 374 93 q 257 103 277 93 l 118 -36 l 0 82 l 135 218 q 123 289 123 244 q 135 361 123 334 l 0 497 l 118 616 l 257 476 q 325 486 277 486 q 394 476 374 486 l 532 616 l 652 497 l 515 361 q 528 289 528 334 q 515 218 528 244 l 652 82 m 354 289 q 345 315 354 306 q 325 324 336 324 q 306 315 315 324 q 296 289 296 306 q 306 264 296 273 q 325 255 315 255 q 345 264 336 255 q 354 289 354 273 z "}," ":{"ha":694,"x_min":0,"x_max":0,"o":""},"Š":{"ha":694,"x_min":0,"x_max":637,"o":"m 260 833 l 222 833 q 94 962 220 836 l 209 1079 l 318 970 l 427 1079 l 544 962 l 414 833 l 376 833 q 561 758 486 833 q 637 556 637 683 l 463 556 q 436 645 463 618 q 376 671 410 671 l 260 671 q 200 645 227 671 q 174 579 174 618 q 200 513 174 539 q 260 486 227 486 l 376 486 q 561 411 486 486 q 637 231 637 336 q 561 52 637 127 q 376 -23 486 -23 l 260 -23 q 75 52 150 -23 q 0 255 0 127 l 174 255 q 200 166 174 192 q 260 139 227 139 l 376 139 q 436 166 410 139 q 463 231 463 192 q 436 297 463 271 q 376 324 410 324 l 260 324 q 75 399 150 324 q 0 579 0 475 q 75 758 0 683 q 260 833 150 833 z "},"š":{"ha":694,"x_min":0,"x_max":637,"o":"m 541 869 l 316 644 l 90 869 l 207 985 l 316 877 l 425 985 l 541 869 m 637 602 l 637 440 l 304 440 q 220 428 251 440 q 189 405 189 416 q 220 383 189 395 q 304 370 251 370 l 333 370 q 537 313 451 370 q 623 174 623 256 q 537 34 623 91 q 333 -23 451 -23 l 0 -23 l 0 139 l 333 139 q 417 151 385 139 q 449 174 449 163 q 417 196 449 184 q 333 208 385 208 l 304 208 q 100 266 185 208 q 15 405 15 323 q 100 545 15 487 q 304 602 185 602 l 637 602 z "},"¦":{"ha":694,"x_min":231,"x_max":405,"o":"m 405 440 l 231 440 l 231 949 l 405 949 l 405 440 m 405 -138 l 231 -138 l 231 370 l 405 370 l 405 -138 z "},"Ð":{"ha":694,"x_min":0,"x_max":637,"o":"m 637 231 q 561 53 637 128 q 376 -23 485 -23 l 116 -23 l 116 324 l 0 324 l 0 486 l 116 486 l 116 833 l 376 833 q 561 758 485 833 q 637 579 637 682 l 637 231 m 463 231 l 463 579 q 436 645 463 618 q 376 671 410 671 l 289 671 l 289 486 l 405 486 l 405 324 l 289 324 l 289 139 l 376 139 q 436 166 410 139 q 463 231 463 192 z "},"ð":{"ha":694,"x_min":0,"x_max":637,"o":"m 637 231 q 561 52 637 127 q 376 -23 486 -23 l 260 -23 q 76 53 152 -23 q 0 231 0 128 l 0 347 q 76 526 0 450 q 260 602 152 602 l 376 602 q 340 612 397 602 l 260 691 l 189 619 l 69 738 l 141 810 l 69 882 l 189 1001 l 260 929 l 332 1001 l 451 882 l 380 810 l 564 624 q 637 449 637 552 l 637 231 m 463 231 l 463 347 q 436 413 463 387 q 376 440 410 440 l 260 440 q 200 413 227 440 q 174 347 174 387 l 174 231 q 200 166 174 192 q 260 139 227 139 l 376 139 q 436 166 410 139 q 463 231 463 192 z "},"Ý":{"ha":694,"x_min":0,"x_max":637,"o":"m 551 962 l 325 737 l 208 853 l 434 1079 l 551 962 m 637 491 l 405 259 l 405 -23 l 231 -23 l 231 259 l 0 491 l 0 833 l 174 833 l 174 551 l 318 406 l 463 551 l 463 833 l 637 833 l 637 491 z "},"ý":{"ha":694,"x_min":0,"x_max":637,"o":"m 551 868 l 325 644 l 208 759 l 434 985 l 551 868 m 637 0 q 561 -178 637 -102 q 376 -253 485 -253 l 116 -253 l 116 -91 l 376 -91 q 436 -65 410 -91 q 463 -23 463 -38 l 260 -23 q 76 53 152 -23 q 0 231 0 128 l 0 602 l 174 602 l 174 231 q 200 166 174 192 q 260 139 227 139 l 463 139 l 463 602 l 637 602 l 637 0 z "},"Þ":{"ha":694,"x_min":0,"x_max":637,"o":"m 637 463 q 561 284 637 360 q 376 208 485 208 l 174 208 l 174 -23 l 0 -23 l 0 833 l 174 833 l 174 718 l 376 718 q 561 642 486 718 q 637 463 637 567 m 463 463 q 436 529 463 502 q 376 556 410 556 l 174 556 l 174 370 l 376 370 q 436 397 410 370 q 463 463 463 424 z "},"þ":{"ha":694,"x_min":0,"x_max":637,"o":"m 637 231 q 561 53 637 128 q 376 -23 485 -23 l 174 -23 l 174 -253 l 0 -253 l 0 833 l 174 833 l 174 602 l 376 602 q 561 526 485 602 q 637 347 637 450 l 637 231 m 463 231 l 463 347 q 436 413 463 387 q 376 440 410 440 l 174 440 l 174 139 l 376 139 q 436 166 410 139 q 463 231 463 192 z "},"­":{"ha":694,"x_min":0,"x_max":637,"o":"m 637 324 l 0 324 l 0 486 l 637 486 l 637 324 z "},"−":{"ha":694,"x_min":0,"x_max":637,"o":"m 637 324 l 0 324 l 0 486 l 637 486 l 637 324 z "},"×":{"ha":694,"x_min":3,"x_max":648,"o":"m 648 200 l 530 82 l 325 287 l 120 82 l 3 200 l 207 405 l 3 610 l 120 728 l 325 523 l 530 728 l 648 610 l 443 405 l 648 200 z "},"¹":{"ha":694,"x_min":174,"x_max":521,"o":"m 521 613 l 174 613 l 174 718 l 289 718 l 289 903 l 203 903 l 203 1007 l 260 1007 q 280 1016 271 1007 q 289 1065 289 1025 l 405 1065 l 405 718 l 521 718 l 521 613 z "},"²":{"ha":694,"x_min":174,"x_max":521,"o":"m 505 861 l 360 718 l 521 718 l 521 613 l 174 613 l 174 684 l 404 916 q 405 926 405 918 q 396 951 405 942 q 376 961 387 961 l 318 961 q 299 951 308 961 q 289 903 289 942 l 174 903 q 215 1023 174 981 q 318 1065 257 1065 l 376 1065 q 479 1023 438 1065 q 521 926 521 981 q 505 861 521 892 z "},"³":{"ha":694,"x_min":174,"x_max":521,"o":"m 289 775 q 299 727 289 736 q 318 718 308 718 l 376 718 q 396 727 387 718 q 405 752 405 736 q 396 778 405 769 q 376 787 387 787 l 289 787 l 289 891 l 376 891 q 396 900 387 891 q 405 926 405 910 q 396 951 405 942 q 376 961 387 961 l 318 961 q 299 951 308 961 q 289 903 289 942 l 174 903 q 215 1023 174 981 q 318 1065 257 1065 l 376 1065 q 479 1023 438 1065 q 521 926 521 981 q 486 839 521 863 q 521 752 521 815 q 479 655 521 697 q 376 613 438 613 l 318 613 q 215 655 257 613 q 174 775 174 697 l 289 775 z "},"½":{"ha":694,"x_min":0,"x_max":767,"o":"m 412 613 l 65 613 l 65 718 l 181 718 l 181 903 l 94 903 l 94 1007 l 152 1007 q 171 1016 162 1007 q 181 1065 181 1025 l 296 1065 l 296 718 l 412 718 l 412 613 m 767 756 l 76 65 l 0 142 l 690 833 l 767 756 m 685 225 l 541 81 l 701 81 l 701 -23 l 354 -23 l 354 47 l 584 279 q 586 289 586 281 q 576 315 586 306 q 557 324 567 324 l 499 324 q 479 315 488 324 q 470 266 470 306 l 354 266 q 396 387 354 345 q 499 428 438 428 l 557 428 q 660 387 618 428 q 701 289 701 345 q 685 225 701 256 z "},"¼":{"ha":694,"x_min":0,"x_max":767,"o":"m 412 613 l 65 613 l 65 718 l 181 718 l 181 903 l 94 903 l 94 1007 l 152 1007 q 171 1016 162 1007 q 181 1065 181 1025 l 296 1065 l 296 718 l 412 718 l 412 613 m 767 756 l 76 65 l 0 142 l 690 833 l 767 756 m 561 428 l 644 428 l 644 197 l 701 197 l 701 93 l 644 93 l 644 81 l 701 81 l 701 -23 l 470 -23 l 470 81 l 528 81 l 528 93 l 354 93 l 354 221 l 561 428 m 470 184 l 470 197 l 528 197 l 528 242 l 470 184 z "},"¾":{"ha":694,"x_min":0,"x_max":767,"o":"m 181 775 q 190 727 181 736 q 209 718 199 718 l 267 718 q 287 727 278 718 q 296 752 296 736 q 287 778 296 769 q 267 787 278 787 l 181 787 l 181 891 l 267 891 q 287 900 278 891 q 296 926 296 910 q 287 951 296 942 q 267 961 278 961 l 209 961 q 190 951 199 961 q 181 903 181 942 l 65 903 q 106 1023 65 981 q 209 1065 148 1065 l 267 1065 q 370 1023 329 1065 q 412 926 412 981 q 377 839 412 863 q 412 752 412 815 q 370 655 412 697 q 267 613 329 613 l 209 613 q 106 655 148 613 q 65 775 65 697 l 181 775 m 767 756 l 76 65 l 0 142 l 690 833 l 767 756 m 561 428 l 644 428 l 644 197 l 701 197 l 701 93 l 644 93 l 644 81 l 701 81 l 701 -23 l 470 -23 l 470 81 l 528 81 l 528 93 l 354 93 l 354 221 l 561 428 m 470 184 l 470 197 l 528 197 l 528 242 l 470 184 z "},"░":{"ha":694,"x_min":0,"x_max":637,"o":"m 231 -93 l 405 -93 l 405 -255 l 231 -255 l 231 -93 m 463 139 l 637 139 l 637 -23 l 463 -23 l 463 139 m 0 139 l 174 139 l 174 -23 l 0 -23 l 0 139 m 231 370 l 405 370 l 405 208 l 231 208 l 231 370 m 463 602 l 637 602 l 637 440 l 463 440 l 463 602 m 0 602 l 174 602 l 174 440 l 0 440 l 0 602 m 231 833 l 405 833 l 405 671 l 231 671 l 231 833 m 463 1065 l 637 1065 l 637 903 l 463 903 l 463 1065 m 231 1065 l 405 1065 l 405 903 l 231 903 l 231 1065 m 0 833 l 174 833 l 174 671 l 0 671 l 0 833 m 463 833 l 637 833 l 637 671 l 463 671 l 463 833 m 231 602 l 405 602 l 405 440 l 231 440 l 231 602 m 0 370 l 174 370 l 174 208 l 0 208 l 0 370 m 463 370 l 637 370 l 637 208 l 463 208 l 463 370 m 231 139 l 405 139 l 405 -23 l 231 -23 l 231 139 m 0 -93 l 174 -93 l 174 -255 l 0 -255 l 0 -93 m 463 -93 l 637 -93 l 637 -255 l 463 -255 l 463 -93 m 0 1065 l 174 1065 l 174 903 l 0 903 l 0 1065 z "},"▒":{"ha":694,"x_min":0,"x_max":752,"o":"m 579 903 l 463 903 l 463 1065 l 637 1065 l 637 949 l 752 949 l 752 787 l 579 787 l 579 903 m 116 -255 l 0 -255 l 0 -93 l 174 -93 l 174 -208 l 289 -208 l 289 -370 l 116 -370 l 116 -255 m 347 -255 l 231 -255 l 231 -139 l 116 -139 l 116 -23 l 0 -23 l 0 139 l 174 139 l 174 23 l 289 23 l 289 -93 l 405 -93 l 405 -208 l 521 -208 l 521 -370 l 347 -370 l 347 -255 m 579 671 l 463 671 l 463 787 l 347 787 l 347 903 l 231 903 l 231 1065 l 405 1065 l 405 949 l 521 949 l 521 833 l 637 833 l 637 718 l 752 718 l 752 556 l 579 556 l 579 671 m 579 -23 l 463 -23 l 463 93 l 347 93 l 347 208 l 231 208 l 231 324 l 116 324 l 116 440 l 0 440 l 0 602 l 174 602 l 174 486 l 289 486 l 289 370 l 405 370 l 405 255 l 521 255 l 521 139 l 637 139 l 637 23 l 752 23 l 752 -139 l 579 -139 l 579 -23 m 579 -255 l 463 -255 l 463 -139 l 347 -139 l 347 -23 l 231 -23 l 231 93 l 116 93 l 116 208 l 0 208 l 0 370 l 174 370 l 174 255 l 289 255 l 289 139 l 405 139 l 405 23 l 521 23 l 521 -93 l 637 -93 l 637 -208 l 752 -208 l 752 -370 l 579 -370 l 579 -255 m 579 208 l 463 208 l 463 324 l 347 324 l 347 440 l 231 440 l 231 556 l 116 556 l 116 671 l 0 671 l 0 833 l 174 833 l 174 718 l 289 718 l 289 602 l 405 602 l 405 486 l 521 486 l 521 370 l 637 370 l 637 255 l 752 255 l 752 93 l 579 93 l 579 208 m 579 440 l 463 440 l 463 556 l 347 556 l 347 671 l 231 671 l 231 787 l 116 787 l 116 903 l 0 903 l 0 1065 l 174 1065 l 174 949 l 289 949 l 289 833 l 405 833 l 405 718 l 521 718 l 521 602 l 637 602 l 637 486 l 752 486 l 752 324 l 579 324 l 579 440 z "},"▓":{"ha":694,"x_min":0,"x_max":752,"o":"m 637 -93 l 752 -93 l 752 -255 l 637 -255 l 637 -370 l 463 -370 l 463 -255 l 405 -255 l 405 -370 l 231 -370 l 231 -255 l 174 -255 l 174 -370 l 0 -370 l 0 1065 l 752 1065 l 752 903 l 637 903 l 637 833 l 752 833 l 752 671 l 637 671 l 637 602 l 752 602 l 752 440 l 637 440 l 637 370 l 752 370 l 752 208 l 637 208 l 637 139 l 752 139 l 752 -23 l 637 -23 l 637 -93 m 231 903 l 174 903 l 174 833 l 231 833 l 231 903 m 231 440 l 174 440 l 174 370 l 231 370 l 231 440 m 231 671 l 174 671 l 174 602 l 231 602 l 231 671 m 231 208 l 174 208 l 174 139 l 231 139 l 231 208 m 231 -23 l 174 -23 l 174 -93 l 231 -93 l 231 -23 m 405 440 l 405 370 l 463 370 l 463 440 l 405 440 m 463 671 l 405 671 l 405 602 l 463 602 l 463 671 m 405 903 l 405 833 l 463 833 l 463 903 l 405 903 m 463 -23 l 405 -23 l 405 -93 l 463 -93 l 463 -23 m 463 208 l 405 208 l 405 139 l 463 139 l 463 208 z "},"│":{"ha":694,"x_min":231,"x_max":405,"o":"m 231 1065 l 405 1065 l 405 -370 l 231 -370 l 231 1065 z "},"┤":{"ha":694,"x_min":0,"x_max":405,"o":"m 0 486 l 231 486 l 231 1065 l 405 1065 l 405 -370 l 231 -370 l 231 324 l 0 324 l 0 486 z "},"╡":{"ha":694,"x_min":0,"x_max":405,"o":"m 0 370 l 231 370 l 231 440 l 0 440 l 0 602 l 231 602 l 231 1065 l 405 1065 l 405 -370 l 231 -370 l 231 208 l 0 208 l 0 370 z "},"╢":{"ha":694,"x_min":0,"x_max":521,"o":"m 347 1065 l 521 1065 l 521 -370 l 347 -370 l 347 1065 m 0 486 l 116 486 l 116 1065 l 289 1065 l 289 -370 l 116 -370 l 116 324 l 0 324 l 0 486 z "},"╖":{"ha":694,"x_min":0,"x_max":521,"o":"m 0 486 l 521 486 l 521 -370 l 347 -370 l 347 324 l 289 324 l 289 -370 l 116 -370 l 116 324 l 0 324 l 0 486 z "},"╕":{"ha":694,"x_min":0,"x_max":405,"o":"m 0 370 l 231 370 l 231 440 l 0 440 l 0 602 l 405 602 l 405 -370 l 231 -370 l 231 208 l 0 208 l 0 370 z "},"╣":{"ha":694,"x_min":0,"x_max":521,"o":"m 0 602 l 116 602 l 116 1065 l 289 1065 l 289 440 l 0 440 l 0 602 m 0 370 l 289 370 l 289 -370 l 116 -370 l 116 208 l 0 208 l 0 370 m 347 1065 l 521 1065 l 521 -370 l 347 -370 l 347 1065 z "},"║":{"ha":694,"x_min":116,"x_max":521,"o":"m 116 1065 l 289 1065 l 289 -370 l 116 -370 l 116 1065 m 347 1065 l 521 1065 l 521 -370 l 347 -370 l 347 1065 z "},"╗":{"ha":694,"x_min":0,"x_max":521,"o":"m 0 370 l 289 370 l 289 -370 l 116 -370 l 116 208 l 0 208 l 0 370 m 0 602 l 521 602 l 521 -370 l 347 -370 l 347 440 l 0 440 l 0 602 z "},"╝":{"ha":694,"x_min":0,"x_max":521,"o":"m 0 602 l 116 602 l 116 1065 l 289 1065 l 289 440 l 0 440 l 0 602 m 0 370 l 347 370 l 347 1065 l 521 1065 l 521 208 l 0 208 l 0 370 z "},"╜":{"ha":694,"x_min":0,"x_max":521,"o":"m 347 1065 l 521 1065 l 521 324 l 0 324 l 0 486 l 116 486 l 116 1065 l 289 1065 l 289 486 l 347 486 l 347 1065 z "},"╛":{"ha":694,"x_min":0,"x_max":405,"o":"m 0 370 l 231 370 l 231 440 l 0 440 l 0 602 l 231 602 l 231 1065 l 405 1065 l 405 208 l 0 208 l 0 370 z "},"┐":{"ha":694,"x_min":0,"x_max":405,"o":"m 0 486 l 405 486 l 405 -370 l 231 -370 l 231 324 l 0 324 l 0 486 z "},"└":{"ha":694,"x_min":231,"x_max":752,"o":"m 231 1065 l 405 1065 l 405 486 l 752 486 l 752 324 l 231 324 l 231 1065 z "},"┴":{"ha":694,"x_min":0,"x_max":752,"o":"m 0 486 l 231 486 l 231 1065 l 405 1065 l 405 486 l 752 486 l 752 324 l 0 324 l 0 486 z "},"┬":{"ha":694,"x_min":0,"x_max":752,"o":"m 0 486 l 752 486 l 752 324 l 405 324 l 405 -370 l 231 -370 l 231 324 l 0 324 l 0 486 z "},"├":{"ha":694,"x_min":231,"x_max":752,"o":"m 405 -370 l 231 -370 l 231 1065 l 405 1065 l 405 486 l 752 486 l 752 324 l 405 324 l 405 -370 z "},"─":{"ha":694,"x_min":0,"x_max":752,"o":"m 0 486 l 752 486 l 752 324 l 0 324 l 0 486 z "},"┼":{"ha":694,"x_min":0,"x_max":752,"o":"m 0 486 l 231 486 l 231 1065 l 405 1065 l 405 486 l 752 486 l 752 324 l 405 324 l 405 -370 l 231 -370 l 231 324 l 0 324 l 0 486 z "},"╞":{"ha":694,"x_min":231,"x_max":752,"o":"m 405 -370 l 231 -370 l 231 1065 l 405 1065 l 405 602 l 752 602 l 752 440 l 405 440 l 405 370 l 752 370 l 752 208 l 405 208 l 405 -370 z "},"╟":{"ha":694,"x_min":116,"x_max":752,"o":"m 116 1065 l 289 1065 l 289 -370 l 116 -370 l 116 1065 m 521 -370 l 347 -370 l 347 1065 l 521 1065 l 521 486 l 752 486 l 752 324 l 521 324 l 521 -370 z "},"╚":{"ha":694,"x_min":116,"x_max":752,"o":"m 347 1065 l 521 1065 l 521 602 l 752 602 l 752 440 l 347 440 l 347 1065 m 116 1065 l 289 1065 l 289 370 l 752 370 l 752 208 l 116 208 l 116 1065 z "},"╔":{"ha":694,"x_min":116,"x_max":752,"o":"m 347 370 l 752 370 l 752 208 l 521 208 l 521 -370 l 347 -370 l 347 370 m 289 -370 l 116 -370 l 116 602 l 752 602 l 752 440 l 289 440 l 289 -370 z "},"╩":{"ha":694,"x_min":0,"x_max":752,"o":"m 0 602 l 116 602 l 116 1065 l 289 1065 l 289 440 l 0 440 l 0 602 m 0 370 l 752 370 l 752 208 l 0 208 l 0 370 m 347 1065 l 521 1065 l 521 602 l 752 602 l 752 440 l 347 440 l 347 1065 z "},"╦":{"ha":694,"x_min":0,"x_max":752,"o":"m 0 602 l 752 602 l 752 440 l 0 440 l 0 602 m 0 370 l 289 370 l 289 -370 l 116 -370 l 116 208 l 0 208 l 0 370 m 347 370 l 752 370 l 752 208 l 521 208 l 521 -370 l 347 -370 l 347 370 z "},"╠":{"ha":694,"x_min":116,"x_max":752,"o":"m 347 370 l 752 370 l 752 208 l 347 208 l 347 370 m 347 255 l 521 255 l 521 -370 l 347 -370 l 347 255 m 347 1065 l 521 1065 l 521 602 l 752 602 l 752 440 l 347 440 l 347 1065 m 116 1065 l 289 1065 l 289 -370 l 116 -370 l 116 1065 z "},"═":{"ha":694,"x_min":0,"x_max":752,"o":"m 0 370 l 752 370 l 752 208 l 0 208 l 0 370 m 0 602 l 752 602 l 752 440 l 0 440 l 0 602 z "},"╬":{"ha":694,"x_min":0,"x_max":752,"o":"m 347 370 l 752 370 l 752 208 l 521 208 l 521 -370 l 347 -370 l 347 370 m 347 1065 l 521 1065 l 521 602 l 752 602 l 752 440 l 347 440 l 347 1065 m 0 602 l 116 602 l 116 1065 l 289 1065 l 289 440 l 0 440 l 0 602 m 0 370 l 289 370 l 289 -370 l 116 -370 l 116 208 l 0 208 l 0 370 z "},"╧":{"ha":694,"x_min":0,"x_max":752,"o":"m 0 370 l 752 370 l 752 208 l 0 208 l 0 370 m 0 602 l 231 602 l 231 1065 l 405 1065 l 405 602 l 752 602 l 752 440 l 0 440 l 0 602 z "},"╨":{"ha":694,"x_min":0,"x_max":752,"o":"m 0 486 l 116 486 l 116 1065 l 289 1065 l 289 486 l 347 486 l 347 1065 l 521 1065 l 521 486 l 752 486 l 752 324 l 0 324 l 0 486 z "},"╤":{"ha":694,"x_min":0,"x_max":752,"o":"m 0 602 l 752 602 l 752 440 l 0 440 l 0 602 m 0 370 l 752 370 l 752 208 l 405 208 l 405 -370 l 231 -370 l 231 208 l 0 208 l 0 370 z "},"╥":{"ha":694,"x_min":0,"x_max":752,"o":"m 347 324 l 289 324 l 289 -370 l 116 -370 l 116 324 l 0 324 l 0 486 l 752 486 l 752 324 l 521 324 l 521 -370 l 347 -370 l 347 324 z "},"╙":{"ha":694,"x_min":116,"x_max":752,"o":"m 116 1065 l 289 1065 l 289 486 l 347 486 l 347 1065 l 521 1065 l 521 486 l 752 486 l 752 324 l 116 324 l 116 1065 z "},"╘":{"ha":694,"x_min":231,"x_max":752,"o":"m 231 1065 l 405 1065 l 405 602 l 752 602 l 752 440 l 405 440 l 405 370 l 752 370 l 752 208 l 231 208 l 231 1065 z "},"╒":{"ha":694,"x_min":231,"x_max":752,"o":"m 405 -370 l 231 -370 l 231 602 l 752 602 l 752 440 l 405 440 l 405 370 l 752 370 l 752 208 l 405 208 l 405 -370 z "},"╓":{"ha":694,"x_min":116,"x_max":752,"o":"m 289 -370 l 116 -370 l 116 486 l 752 486 l 752 324 l 521 324 l 521 -370 l 347 -370 l 347 324 l 289 324 l 289 -370 z "},"╫":{"ha":694,"x_min":0,"x_max":752,"o":"m 347 324 l 289 324 l 289 -370 l 116 -370 l 116 324 l 0 324 l 0 486 l 116 486 l 116 1065 l 289 1065 l 289 486 l 347 486 l 347 1065 l 521 1065 l 521 486 l 752 486 l 752 324 l 521 324 l 521 -370 l 347 -370 l 347 324 z "},"╪":{"ha":694,"x_min":0,"x_max":752,"o":"m 0 602 l 231 602 l 231 1065 l 405 1065 l 405 602 l 752 602 l 752 440 l 405 440 l 405 370 l 752 370 l 752 208 l 405 208 l 405 -370 l 231 -370 l 231 208 l 0 208 l 0 370 l 231 370 l 231 440 l 0 440 l 0 602 z "},"┘":{"ha":694,"x_min":0,"x_max":405,"o":"m 0 486 l 231 486 l 231 1065 l 405 1065 l 405 324 l 0 324 l 0 486 z "},"┌":{"ha":694,"x_min":231,"x_max":752,"o":"m 405 -370 l 231 -370 l 231 486 l 752 486 l 752 324 l 405 324 l 405 -370 z "},"█":{"ha":694,"x_min":0,"x_max":752,"o":"m 0 1065 l 752 1065 l 752 -370 l 0 -370 l 0 1065 z "},"▄":{"ha":694,"x_min":0,"x_max":752,"o":"m 0 370 l 752 370 l 752 -370 l 0 -370 l 0 370 z "},"▌":{"ha":694,"x_min":0,"x_max":405,"o":"m 0 1065 l 405 1065 l 405 -370 l 0 -370 l 0 1065 z "},"▐":{"ha":694,"x_min":347,"x_max":752,"o":"m 347 1065 l 752 1065 l 752 -370 l 347 -370 l 347 1065 z "},"▀":{"ha":694,"x_min":0,"x_max":752,"o":"m 0 1065 l 752 1065 l 752 324 l 0 324 l 0 1065 z "},"⌐":{"ha":694,"x_min":0,"x_max":637,"o":"m 0 486 l 637 486 l 637 324 l 174 324 l 174 93 l 0 93 l 0 486 z "},"€":{"ha":694,"x_min":0,"x_max":637,"o":"m 0 370 l 116 370 l 116 440 l 0 440 l 0 602 l 116 602 q 192 758 116 682 q 376 833 267 833 q 560 758 485 833 q 637 556 637 682 l 463 556 q 437 645 463 619 q 376 671 411 671 q 315 645 341 671 q 289 602 289 619 l 405 602 l 405 440 l 289 440 l 289 370 l 405 370 l 405 208 l 289 208 q 315 165 289 191 q 376 139 341 139 q 437 165 411 139 q 463 255 463 191 l 637 255 q 560 52 637 128 q 376 -23 485 -23 q 192 52 267 -23 q 116 208 116 128 l 0 208 l 0 370 z "},"Ž":{"ha":694,"x_min":0,"x_max":637,"o":"m 637 -23 l 0 -23 l 0 215 l 463 677 l 463 671 l 0 671 l 0 833 l 637 833 l 637 615 l 174 152 l 174 139 l 637 139 l 637 -23 m 208 1073 l 317 964 l 426 1073 l 542 956 l 374 787 l 260 787 l 91 956 l 208 1073 z "},"ž":{"ha":694,"x_min":0,"x_max":637,"o":"m 637 -23 l 0 -23 l 0 88 l 352 440 l 0 440 l 0 602 l 637 602 l 637 491 l 285 139 l 637 139 l 637 -23 m 96 863 l 212 979 l 321 872 l 429 979 l 546 863 l 321 638 l 96 863 z "},"‗":{"ha":694,"x_min":0,"x_max":752,"o":"m 752 -139 l 0 -139 l 0 23 l 752 23 l 752 -139 m 752 -370 l 0 -370 l 0 -208 l 752 -208 l 752 -370 z "}}}
